<?xml version="1.0" encoding="UTF-8" standalone="no"?>
<!DOCTYPE svg PUBLIC "-//W3C//DTD SVG 1.1//EN" "http://www.w3.org/Graphics/SVG/1.1/DTD/svg11.dtd">
<svg xmlns="http://www.w3.org/2000/svg" xmlns:xlink="http://www.w3.org/1999/xlink" version="1.1" width="960pt" height="540pt" viewBox="0 0 960 540">
<g enable-background="new">
<clipPath id="cp0">
<path transform="matrix(1,0,0,-1,0,540)" d="M 0 0 L 959.76 0 L 959.76 540 L 0 540 Z "/>
</clipPath>
<g clip-path="url(#cp0)">
<path transform="matrix(1,0,0,-1,0,540)" d="M 0 0 L 959.76 0 L 959.76 540 L 0 540 Z " fill="#ffffff"/>
</g>
<clipPath id="cp1">
<path transform="matrix(1,0,0,-1,0,540)" d="M 0 0 L 960 0 L 960 540 L 0 540 Z "/>
</clipPath>
<g clip-path="url(#cp1)">
<path transform="matrix(1,0,0,-1,0,540)" d="M 0 0 L 960 0 L 960 540 L 0 540 Z " fill="#ffffff"/>
</g>
<clipPath id="cp2">
<path transform="matrix(1,0,0,-1,0,540)" d="M 249.5956 53.9282 L 732 53.9282 L 732 540 L 249.5956 540 Z "/>
</clipPath>
<g clip-path="url(#cp2)">
<path transform="matrix(.974437,0,0,-.9744483,99.79126,552.4427)" stroke-width="1" stroke-linecap="round" stroke-linejoin="round" fill="none" stroke="#000000" d="M 389.18 24 L 405.82 24 "/>
<text xml:space="preserve" transform="matrix(.974437 0 -0 .9744483 99.79126 552.4427)" font-size="10" font-family="Helvetica"><tspan y="-9" x="390.5 396.075 398.87004">0.1</tspan></text>
<path transform="matrix(.974437,0,0,-.9744483,99.79126,552.4427)" stroke-width="2.5" stroke-linecap="butt" stroke-miterlimit="10" stroke-linejoin="miter" fill="none" stroke="#00cc33" d="M 254.46 205.55 L 339.03 272.06 C 339.52 271.44 340.01 270.83 340.52 270.22 "/>
<path transform="matrix(.974437,0,0,-.9744483,99.79126,552.4427)" stroke-width="2.5" stroke-linecap="butt" stroke-miterlimit="10" stroke-linejoin="miter" fill="none" stroke="#00cc33" d="M 333.03 293.97 L 346.97 299.17 C 346.29 300.97 345.72 302.81 345.24 304.68 "/>
<path transform="matrix(.974437,0,0,-.9744483,99.79126,552.4427)" stroke-width="2.5" stroke-linecap="butt" stroke-miterlimit="10" stroke-linejoin="miter" fill="none" stroke="#00cc33" d="M 321.93 191.85 L 365.72 265 C 367.83 263.74 370 262.61 372.24 261.61 "/>
<path transform="matrix(.974437,0,0,-.9744483,99.79126,552.4427)" stroke-width="2.5" stroke-linecap="butt" stroke-miterlimit="10" stroke-linejoin="miter" fill="none" stroke="#00cc33" d="M 417.62 137.2 L 403.48 264.02 C 405.06 264.2 406.64 264.44 408.21 264.76 "/>
<path transform="matrix(.974437,0,0,-.9744483,99.79126,552.4427)" stroke-width="2.5" stroke-linecap="butt" stroke-miterlimit="10" stroke-linejoin="miter" fill="none" stroke="#00cc33" d="M 367.25 269.76 L 369.51 273.36 C 372.85 271.27 376.41 269.57 380.13 268.27 "/>
<path transform="matrix(.974437,0,0,-.9744483,99.79126,552.4427)" stroke-width="2.5" stroke-linecap="butt" stroke-miterlimit="10" stroke-linejoin="miter" fill="none" stroke="#00cc33" d="M 261.87 439.3 L 308.55 397.55 C 307.71 396.61 306.88 395.65 306.07 394.69 "/>
<path transform="matrix(.974437,0,0,-.9744483,99.79126,552.4427)" stroke-width="2.5" stroke-linecap="butt" stroke-miterlimit="10" stroke-linejoin="miter" fill="none" stroke="#0033ff" d="M 570.29 261.24 L 478.81 291.28 C 479.09 292.14 479.36 293.01 479.62 293.88 "/>
<path transform="matrix(.974437,0,0,-.9744483,99.79126,552.4427)" stroke-width="2.5" stroke-linecap="butt" stroke-miterlimit="10" stroke-linejoin="miter" fill="none" stroke="#00cc33" d="M 313.01 279.44 L 334.9 289.44 C 334.22 290.93 333.6 292.44 333.03 293.97 "/>
<path transform="matrix(.974437,0,0,-.9744483,99.79126,552.4427)" stroke-width="2.5" stroke-linecap="butt" stroke-miterlimit="10" stroke-linejoin="miter" fill="none" stroke="#00cc33" d="M 372.24 261.61 L 374.22 266.04 C 371.82 267.12 369.49 268.36 367.25 269.76 "/>
<path transform="matrix(.974437,0,0,-.9744483,99.79126,552.4427)" stroke-width="2.5" stroke-linecap="butt" stroke-miterlimit="10" stroke-linejoin="miter" fill="none" stroke="#00cc33" d="M 254.45 430.46 L 303.68 391.75 C 304.46 392.74 305.26 393.72 306.07 394.69 "/>
<path transform="matrix(.974437,0,0,-.9744483,99.79126,552.4427)" stroke-width="2.5" stroke-linecap="butt" stroke-miterlimit="10" stroke-linejoin="miter" fill="none" stroke="#00cc33" d="M 373.99 336.61 L 376.69 334.47 C 370 326.04 369.08 314.41 374.34 305.03 "/>
<path transform="matrix(.974437,0,0,-.9744483,99.79126,552.4427)" stroke-width="2.5" stroke-linecap="butt" stroke-miterlimit="10" stroke-linejoin="miter" fill="none" stroke="#00cc33" d="M 226.51 255.78 L 236.67 259.48 C 237.29 257.78 237.93 256.09 238.6 254.41 "/>
<path transform="matrix(.974437,0,0,-.9744483,99.79126,552.4427)" stroke-width="2.5" stroke-linecap="butt" stroke-miterlimit="10" stroke-linejoin="miter" fill="none" stroke="#00cc33" d="M 230.8 245.06 L 240.7 249.4 C 239.98 251.06 239.28 252.73 238.6 254.41 "/>
<path transform="matrix(.974437,0,0,-.9744483,99.79126,552.4427)" stroke-width="2.5" stroke-linecap="butt" stroke-miterlimit="10" stroke-linejoin="miter" fill="none" stroke="#ff6600" d="M 403.86 353.49 L 402 343.21 C 402.92 343.04 403.83 342.83 404.72 342.56 "/>
<path transform="matrix(.974437,0,0,-.9744483,99.79126,552.4427)" stroke-width="2.5" stroke-linecap="butt" stroke-miterlimit="10" stroke-linejoin="miter" fill="none" stroke="#33cccc" d="M 566.35 385.62 L 535.99 373.46 C 535.4 374.93 534.79 376.38 534.16 377.83 "/>
<path transform="matrix(.974437,0,0,-.9744483,99.79126,552.4427)" stroke-width="2.5" stroke-linecap="butt" stroke-miterlimit="10" stroke-linejoin="miter" fill="none" stroke="#000000" d="M 381.55 323.41 L 381.8 323.33 C 384.13 330.18 390.64 334.72 397.88 334.54 "/>
<path transform="matrix(.974437,0,0,-.9744483,99.79126,552.4427)" stroke-width="2.5" stroke-linecap="butt" stroke-miterlimit="10" stroke-linejoin="miter" fill="none" stroke="#ff6600" d="M 383.04 499.35 L 385.35 470.23 C 383.74 470.11 382.13 469.95 380.53 469.77 "/>
<path transform="matrix(.974437,0,0,-.9744483,99.79126,552.4427)" stroke-width="2.5" stroke-linecap="butt" stroke-miterlimit="10" stroke-linejoin="miter" fill="none" stroke="#00cc33" d="M 215.63 312.23 L 348.37 316.44 C 348.42 314.66 348.58 312.88 348.83 311.11 "/>
<path transform="matrix(.974437,0,0,-.9744483,99.79126,552.4427)" stroke-width="2.5" stroke-linecap="butt" stroke-miterlimit="10" stroke-linejoin="miter" fill="none" stroke="#00cc33" d="M 306.49 160.45 L 315.45 175.96 C 316.95 175.1 318.47 174.25 320 173.43 "/>
<path transform="matrix(.974437,0,0,-.9744483,99.79126,552.4427)" stroke-width="2.5" stroke-linecap="butt" stroke-miterlimit="10" stroke-linejoin="miter" fill="none" stroke="#00cc33" d="M 529.12 192.46 L 495.16 224.84 C 496.15 225.87 497.12 226.92 498.07 227.99 "/>
<path transform="matrix(.974437,0,0,-.9744483,99.79126,552.4427)" stroke-width="2.5" stroke-linecap="butt" stroke-miterlimit="10" stroke-linejoin="miter" fill="none" stroke="#00cc33" d="M 316.67 155 L 324.62 171.05 C 323.07 171.82 321.53 172.62 320 173.43 "/>
<path transform="matrix(.974437,0,0,-.9744483,99.79126,552.4427)" stroke-width="2.5" stroke-linecap="butt" stroke-miterlimit="10" stroke-linejoin="miter" fill="none" stroke="#ff6600" d="M 399.94 362.61 L 399.46 354 C 400.93 353.92 402.4 353.75 403.86 353.49 "/>
<path transform="matrix(.974437,0,0,-.9744483,99.79126,552.4427)" stroke-width="2.5" stroke-linecap="butt" stroke-miterlimit="10" stroke-linejoin="miter" fill="none" stroke="#ffcc00" d="M 296.69 469.46 L 372.35 355.74 C 372.75 356.01 373.15 356.26 373.56 356.52 "/>
<path transform="matrix(.974437,0,0,-.9744483,99.79126,552.4427)" stroke-width="2.5" stroke-linecap="butt" stroke-miterlimit="10" stroke-linejoin="miter" fill="none" stroke="#00cc33" d="M 327.17 150.2 L 341.51 184.44 C 342.92 183.84 344.34 183.28 345.78 182.73 "/>
<path transform="matrix(.974437,0,0,-.9744483,99.79126,552.4427)" stroke-width="2.5" stroke-linecap="butt" stroke-miterlimit="10" stroke-linejoin="miter" fill="none" stroke="#00cc33" d="M 261.88 196.7 L 342.06 268.44 C 341.54 269.03 341.02 269.62 340.52 270.22 "/>
<path transform="matrix(.974437,0,0,-.9744483,99.79126,552.4427)" stroke-width="2.5" stroke-linecap="butt" stroke-miterlimit="10" stroke-linejoin="miter" fill="none" stroke="#00cc33" d="M 247.61 214.84 L 253.17 218.67 C 252.12 220.2 251.1 221.74 250.1 223.3 "/>
<path transform="matrix(.974437,0,0,-.9744483,99.79126,552.4427)" stroke-width="2.5" stroke-linecap="butt" stroke-miterlimit="10" stroke-linejoin="miter" fill="none" stroke="#ff6600" d="M 398.29 370.82 L 398.23 367.09 C 397.2 367.1 396.16 367.09 395.12 367.04 "/>
<path transform="matrix(.974437,0,0,-.9744483,99.79126,552.4427)" stroke-width="2.5" stroke-linecap="butt" stroke-miterlimit="10" stroke-linejoin="miter" fill="none" stroke="#00cc33" d="M 550.5 219.65 L 416.13 306 C 416.26 306.2 416.38 306.4 416.5 306.6 "/>
<path transform="matrix(.974437,0,0,-.9744483,99.79126,552.4427)" stroke-width="2.5" stroke-linecap="butt" stroke-miterlimit="10" stroke-linejoin="miter" fill="none" stroke="#ff6600" d="M 476.23 454.44 L 442.69 396.36 C 443.94 395.64 445.16 394.89 446.37 394.12 "/>
<path transform="matrix(.974437,0,0,-.9744483,99.79126,552.4427)" stroke-width="2.5" stroke-linecap="butt" stroke-miterlimit="10" stroke-linejoin="miter" fill="none" stroke="#ff6600" d="M 512.17 459.2 L 441.38 372.07 C 440.38 372.88 439.36 373.67 438.31 374.42 "/>
<path transform="matrix(.974437,0,0,-.9744483,99.79126,552.4427)" stroke-width="2.5" stroke-linecap="butt" stroke-miterlimit="10" stroke-linejoin="miter" fill="none" stroke="#00cc33" d="M 247.61 421.16 L 292.91 389.98 C 292.15 388.87 291.41 387.75 290.68 386.62 "/>
<path transform="matrix(.974437,0,0,-.9744483,99.79126,552.4427)" stroke-width="2.5" stroke-linecap="butt" stroke-miterlimit="10" stroke-linejoin="miter" fill="none" stroke="#ff6600" d="M 360.2 496.07 L 379.15 405.47 C 378.23 405.27 377.31 405.07 376.39 404.84 "/>
<path transform="matrix(.974437,0,0,-.9744483,99.79126,552.4427)" stroke-width="2.5" stroke-linecap="butt" stroke-miterlimit="10" stroke-linejoin="miter" fill="none" stroke="#00cc33" d="M 287.28 173.23 L 356.63 264.36 C 355.78 265 354.94 265.67 354.12 266.36 "/>
<path transform="matrix(.974437,0,0,-.9744483,99.79126,552.4427)" stroke-width="2.5" stroke-linecap="butt" stroke-miterlimit="10" stroke-linejoin="miter" fill="none" stroke="#33cccc" d="M 536.82 434.94 L 467.02 376.38 C 467.64 375.64 468.24 374.89 468.84 374.14 "/>
<path transform="matrix(.974437,0,0,-.9744483,99.79126,552.4427)" stroke-width="2.5" stroke-linecap="butt" stroke-miterlimit="10" stroke-linejoin="miter" fill="none" stroke="#cc0066" d="M 577.91 294.97 L 506.1 304.14 C 505.95 302.99 505.79 301.84 505.61 300.7 "/>
<path transform="matrix(.974437,0,0,-.9744483,99.79126,552.4427)" stroke-width="2.5" stroke-linecap="butt" stroke-miterlimit="10" stroke-linejoin="miter" fill="none" stroke="#00cc33" d="M 320 173.43 L 328.02 188.4 C 325.96 189.5 323.93 190.65 321.93 191.85 "/>
<path transform="matrix(.974437,0,0,-.9744483,99.79126,552.4427)" stroke-width="2.5" stroke-linecap="butt" stroke-miterlimit="10" stroke-linejoin="miter" fill="none" stroke="#00cc33" d="M 337.95 391.25 L 341.5 386.88 C 340.41 385.99 339.33 385.08 338.28 384.14 "/>
<path transform="matrix(.974437,0,0,-.9744483,99.79126,552.4427)" stroke-width="2.5" stroke-linecap="butt" stroke-miterlimit="10" stroke-linejoin="miter" fill="none" stroke="#ffcc00" d="M 306.5 475.55 L 374.79 357.26 C 374.38 357.02 373.97 356.77 373.56 356.52 "/>
<path transform="matrix(.974437,0,0,-.9744483,99.79126,552.4427)" stroke-width="2.5" stroke-linecap="butt" stroke-miterlimit="10" stroke-linejoin="miter" fill="none" stroke="#00cc33" d="M 348.98 142.66 L 351.22 150.77 C 352.99 150.29 354.77 149.82 356.55 149.39 "/>
<path transform="matrix(.974437,0,0,-.9744483,99.79126,552.4427)" stroke-width="2.5" stroke-linecap="butt" stroke-miterlimit="10" stroke-linejoin="miter" fill="none" stroke="#33cccc" d="M 573.55 363.69 L 447.57 331.01 C 447.78 330.21 447.96 329.41 448.13 328.61 "/>
<path transform="matrix(.974437,0,0,-.9744483,99.79126,552.4427)" stroke-width="2.5" stroke-linecap="butt" stroke-miterlimit="10" stroke-linejoin="miter" fill="none" stroke="#00cc33" d="M 380.13 268.27 L 381.84 273.17 C 385.15 272.02 388.58 271.23 392.07 270.83 "/>
<path transform="matrix(.974437,0,0,-.9744483,99.79126,552.4427)" stroke-width="2.5" stroke-linecap="butt" stroke-miterlimit="10" stroke-linejoin="miter" fill="none" stroke="#ff6600" d="M 380.53 469.77 L 392.01 366.79 C 393.05 366.91 394.08 366.99 395.12 367.04 "/>
<path transform="matrix(.974437,0,0,-.9744483,99.79126,552.4427)" stroke-width="2.5" stroke-linecap="butt" stroke-miterlimit="10" stroke-linejoin="miter" fill="none" stroke="#33cccc" d="M 529.12 443.54 L 437.81 356.48 C 438.42 355.84 439.01 355.18 439.59 354.51 "/>
<path transform="matrix(.974437,0,0,-.9744483,99.79126,552.4427)" stroke-width="2.5" stroke-linecap="butt" stroke-miterlimit="10" stroke-linejoin="miter" fill="none" stroke="#00cc33" d="M 512.17 176.8 L 418.87 291.64 C 418.59 291.41 418.31 291.19 418.03 290.97 "/>
<path transform="matrix(.974437,0,0,-.9744483,99.79126,552.4427)" stroke-width="2.5" stroke-linecap="butt" stroke-miterlimit="10" stroke-linejoin="miter" fill="none" stroke="#0033ff" d="M 573.55 272.31 L 480.34 296.5 C 480.11 295.62 479.87 294.75 479.62 293.88 "/>
<path transform="matrix(.974437,0,0,-.9744483,99.79126,552.4427)" stroke-width="2.5" stroke-linecap="butt" stroke-miterlimit="10" stroke-linejoin="miter" fill="none" stroke="#00cc33" d="M 429.05 138.84 L 414.87 219.25 C 415.91 219.44 416.95 219.64 417.99 219.86 "/>
<path transform="matrix(.974437,0,0,-.9744483,99.79126,552.4427)" stroke-width="2.5" stroke-linecap="butt" stroke-miterlimit="10" stroke-linejoin="miter" fill="none" stroke="#00cc33" d="M 369.25 293.42 L 371.1 295.04 C 368.23 298.33 366 302.14 364.53 306.26 "/>
<path transform="matrix(.974437,0,0,-.9744483,99.79126,552.4427)" stroke-width="2.5" stroke-linecap="butt" stroke-miterlimit="10" stroke-linejoin="miter" fill="none" stroke="#00cc33" d="M 290.68 386.62 L 372.27 334.19 C 372.8 335.02 373.38 335.83 373.99 336.61 "/>
<path transform="matrix(.974437,0,0,-.9744483,99.79126,552.4427)" stroke-width="2.5" stroke-linecap="butt" stroke-miterlimit="10" stroke-linejoin="miter" fill="none" stroke="#33cccc" d="M 543.95 425.87 L 470.58 371.85 C 470.01 372.62 469.43 373.38 468.84 374.14 "/>
<path transform="matrix(.974437,0,0,-.9744483,99.79126,552.4427)" stroke-width="2.5" stroke-linecap="butt" stroke-miterlimit="10" stroke-linejoin="miter" fill="none" stroke="#00cc33" d="M 451.47 144.28 L 418.56 250.13 C 420.09 250.6 421.6 251.13 423.09 251.71 "/>
<path transform="matrix(.974437,0,0,-.9744483,99.79126,552.4427)" stroke-width="2.5" stroke-linecap="butt" stroke-miterlimit="10" stroke-linejoin="miter" fill="none" stroke="#0033ff" d="M 479.62 293.88 L 442.6 304.75 C 442.32 303.79 442.01 302.84 441.67 301.91 "/>
<path transform="matrix(.974437,0,0,-.9744483,99.79126,552.4427)" stroke-width="2.5" stroke-linecap="butt" stroke-miterlimit="10" stroke-linejoin="miter" fill="none" stroke="#00cc33" d="M 241.37 224.55 L 247.16 228.02 C 248.12 226.43 249.09 224.86 250.1 223.3 "/>
<path transform="matrix(.974437,0,0,-.9744483,99.79126,552.4427)" stroke-width="2.5" stroke-linecap="butt" stroke-miterlimit="10" stroke-linejoin="miter" fill="none" stroke="#ff6600" d="M 348.98 493.34 L 373.64 404.13 C 374.55 404.38 375.47 404.62 376.39 404.84 "/>
<path transform="matrix(.974437,0,0,-.9744483,99.79126,552.4427)" stroke-width="2.5" stroke-linecap="butt" stroke-miterlimit="10" stroke-linejoin="miter" fill="none" stroke="#00cc33" d="M 269.84 188.35 L 305.43 224.5 C 306.42 223.53 307.42 222.57 308.44 221.63 "/>
<path transform="matrix(.974437,0,0,-.9744483,99.79126,552.4427)" stroke-width="2.5" stroke-linecap="butt" stroke-miterlimit="10" stroke-linejoin="miter" fill="none" stroke="#ff6600" d="M 483.37 478.36 L 471.86 456.87 C 473.33 456.08 474.78 455.27 476.23 454.44 "/>
<path transform="matrix(.974437,0,0,-.9744483,99.79126,552.4427)" stroke-width="2.5" stroke-linecap="butt" stroke-miterlimit="10" stroke-linejoin="miter" fill="none" stroke="#00cc33" d="M 217.82 289.26 L 324.87 306.39 C 325 305.62 325.13 304.85 325.28 304.09 "/>
<path transform="matrix(.974437,0,0,-.9744483,99.79126,552.4427)" stroke-width="2.5" stroke-linecap="butt" stroke-miterlimit="10" stroke-linejoin="miter" fill="none" stroke="#00cc33" d="M 423.09 251.71 L 420.36 258.77 C 418.75 258.15 417.12 257.59 415.47 257.1 "/>
<path transform="matrix(.974437,0,0,-.9744483,99.79126,552.4427)" stroke-width="2.5" stroke-linecap="butt" stroke-miterlimit="10" stroke-linejoin="miter" fill="none" stroke="#00cc33" d="M 241.18 392.39 L 356.48 337.51 C 356.07 336.64 355.68 335.76 355.33 334.87 "/>
<path transform="matrix(.974437,0,0,-.9744483,99.79126,552.4427)" stroke-width="2.5" stroke-linecap="butt" stroke-miterlimit="10" stroke-linejoin="miter" fill="none" stroke="#00cc33" d="M 543.95 210.14 L 417.87 302.97 C 417.63 302.65 417.38 302.33 417.13 302.02 "/>
<path transform="matrix(.974437,0,0,-.9744483,99.79126,552.4427)" stroke-width="2.5" stroke-linecap="butt" stroke-miterlimit="10" stroke-linejoin="miter" fill="none" stroke="#00cc33" d="M 226.51 380.22 L 299.1 353.8 C 298.72 352.76 298.36 351.71 298.02 350.66 "/>
<path transform="matrix(.974437,0,0,-.9744483,99.79126,552.4427)" stroke-width="2.5" stroke-linecap="butt" stroke-miterlimit="10" stroke-linejoin="miter" fill="none" stroke="#00cc33" d="M 374.26 340.48 L 375.95 338.84 C 375.26 338.13 374.61 337.38 373.99 336.61 "/>
<path transform="matrix(.974437,0,0,-.9744483,99.79126,552.4427)" stroke-width="2.5" stroke-linecap="butt" stroke-miterlimit="10" stroke-linejoin="miter" fill="none" stroke="#ff6600" d="M 473.03 483.48 L 440.85 413.03 C 439.85 413.49 438.84 413.93 437.82 414.36 "/>
<path transform="matrix(.974437,0,0,-.9744483,99.79126,552.4427)" stroke-width="2.5" stroke-linecap="butt" stroke-miterlimit="10" stroke-linejoin="miter" fill="none" stroke="#33cccc" d="M 579.01 329.54 L 438.64 320.62 C 438.58 321.6 438.48 322.58 438.35 323.55 "/>
<path transform="matrix(.974437,0,0,-.9744483,99.79126,552.4427)" stroke-width="2.5" stroke-linecap="butt" stroke-miterlimit="10" stroke-linejoin="miter" fill="none" stroke="#00cc33" d="M 235.76 401.36 L 243.62 397.31 C 242.78 395.69 241.96 394.04 241.18 392.39 "/>
<path transform="matrix(.974437,0,0,-.9744483,99.79126,552.4427)" stroke-width="2.5" stroke-linecap="butt" stroke-miterlimit="10" stroke-linejoin="miter" fill="none" stroke="#ffcc00" d="M 373.56 356.52 L 386.78 335.2 C 387.15 335.43 387.52 335.64 387.9 335.85 "/>
<path transform="matrix(.974437,0,0,-.9744483,99.79126,552.4427)" stroke-width="2.5" stroke-linecap="butt" stroke-miterlimit="10" stroke-linejoin="miter" fill="none" stroke="#33cccc" d="M 561.72 396.19 L 532.19 382.14 C 532.87 380.71 533.53 379.28 534.16 377.83 "/>
<path transform="matrix(.974437,0,0,-.9744483,99.79126,552.4427)" stroke-width="2.5" stroke-linecap="butt" stroke-miterlimit="10" stroke-linejoin="miter" fill="none" stroke="#33cccc" d="M 472.08 329.94 L 448.58 326.18 C 448.45 326.99 448.3 327.8 448.13 328.61 "/>
<path transform="matrix(.974437,0,0,-.9744483,99.79126,552.4427)" stroke-width="2.5" stroke-linecap="butt" stroke-miterlimit="10" stroke-linejoin="miter" fill="none" stroke="#00cc33" d="M 217.82 346.75 L 319.43 330.49 C 319.57 331.31 319.71 332.14 319.87 332.96 "/>
<path transform="matrix(.974437,0,0,-.9744483,99.79126,552.4427)" stroke-width="2.5" stroke-linecap="butt" stroke-miterlimit="10" stroke-linejoin="miter" fill="none" stroke="#ff6600" d="M 376.39 404.84 L 392.15 339.87 C 394.07 340.34 396.04 340.55 398.01 340.5 "/>
<path transform="matrix(.974437,0,0,-.9744483,99.79126,552.4427)" stroke-width="2.5" stroke-linecap="butt" stroke-miterlimit="10" stroke-linejoin="miter" fill="none" stroke="#ff6600" d="M 502.98 466.19 L 449.94 391.7 C 448.77 392.53 447.58 393.34 446.37 394.12 "/>
<path transform="matrix(.974437,0,0,-.9744483,99.79126,552.4427)" stroke-width="2.5" stroke-linecap="butt" stroke-miterlimit="10" stroke-linejoin="miter" fill="none" stroke="#00cc33" d="M 364.84 313.95 L 366.54 314.16 C 366.28 316.27 366.23 318.4 366.41 320.52 "/>
<path transform="matrix(.974437,0,0,-.9744483,99.79126,552.4427)" stroke-width="2.5" stroke-linecap="butt" stroke-miterlimit="10" stroke-linejoin="miter" fill="none" stroke="#ff6600" d="M 437.82 414.36 L 407.35 341.63 C 406.49 341.98 405.61 342.3 404.72 342.56 "/>
<path transform="matrix(.974437,0,0,-.9744483,99.79126,552.4427)" stroke-width="2.5" stroke-linecap="butt" stroke-miterlimit="10" stroke-linejoin="miter" fill="none" stroke="#00cc33" d="M 345.78 182.73 L 354.16 204.66 C 356.55 203.75 358.98 202.91 361.43 202.14 "/>
<path transform="matrix(.974437,0,0,-.9744483,99.79126,552.4427)" stroke-width="2.5" stroke-linecap="butt" stroke-miterlimit="10" stroke-linejoin="miter" fill="none" stroke="#00cc33" d="M 395.62 296.59 L 395.72 297.77 C 399.51 297.44 403.32 298.19 406.71 299.92 "/>
<path transform="matrix(.974437,0,0,-.9744483,99.79126,552.4427)" stroke-width="2.5" stroke-linecap="butt" stroke-miterlimit="10" stroke-linejoin="miter" fill="none" stroke="#00cc33" d="M 498.07 227.99 L 416.35 301.1 C 416.62 301.4 416.88 301.71 417.13 302.02 "/>
<path transform="matrix(.974437,0,0,-.9744483,99.79126,552.4427)" stroke-width="2.5" stroke-linecap="butt" stroke-miterlimit="10" stroke-linejoin="miter" fill="none" stroke="#ff6600" d="M 520.89 451.64 L 424.33 347.1 C 423.75 347.63 423.16 348.14 422.55 348.64 "/>
<path transform="matrix(.974437,0,0,-.9744483,99.79126,552.4427)" stroke-width="2.5" stroke-linecap="butt" stroke-miterlimit="10" stroke-linejoin="miter" fill="none" stroke="#00cc33" d="M 417.99 219.86 L 410.46 255.84 C 412.15 256.19 413.82 256.61 415.47 257.1 "/>
<path transform="matrix(.974437,0,0,-.9744483,99.79126,552.4427)" stroke-width="2.5" stroke-linecap="butt" stroke-miterlimit="10" stroke-linejoin="miter" fill="none" stroke="#0033ff" d="M 561.71 239.81 L 501.41 268.52 C 501.93 269.62 502.44 270.73 502.93 271.84 "/>
<path transform="matrix(.974437,0,0,-.9744483,99.79126,552.4427)" stroke-width="2.5" stroke-linecap="butt" stroke-miterlimit="10" stroke-linejoin="miter" fill="none" stroke="#00cc33" d="M 354.12 266.36 L 360.87 274.4 C 362.89 272.71 365.02 271.15 367.25 269.76 "/>
<path transform="matrix(.974437,0,0,-.9744483,99.79126,552.4427)" stroke-width="2.5" stroke-linecap="butt" stroke-miterlimit="10" stroke-linejoin="miter" fill="none" stroke="#cc0066" d="M 579.01 306.46 L 558.2 307.79 C 558.3 309.49 558.39 311.19 558.44 312.89 "/>
<path transform="matrix(.974437,0,0,-.9744483,99.79126,552.4427)" stroke-width="2.5" stroke-linecap="butt" stroke-miterlimit="10" stroke-linejoin="miter" fill="none" stroke="#0033ff" d="M 502.93 271.84 L 440.56 299.14 C 440.96 300.05 441.33 300.97 441.67 301.91 "/>
<path transform="matrix(.974437,0,0,-.9744483,99.79126,552.4427)" stroke-width="2.5" stroke-linecap="butt" stroke-miterlimit="10" stroke-linejoin="miter" fill="none" stroke="#000000" d="M 380.66 324.67 L 381.21 324.44 C 379.42 319.92 379.59 314.85 381.7 310.45 C 383.8 306.06 387.64 302.75 392.29 301.31 "/>
<path transform="matrix(.974437,0,0,-.9744483,99.79126,552.4427)" stroke-width="2.5" stroke-linecap="butt" stroke-miterlimit="10" stroke-linejoin="miter" fill="none" stroke="#00cc33" d="M 222.9 369.26 L 297.03 347.49 C 297.34 348.55 297.67 349.61 298.02 350.66 "/>
<path transform="matrix(.974437,0,0,-.9744483,99.79126,552.4427)" stroke-width="2.5" stroke-linecap="butt" stroke-miterlimit="10" stroke-linejoin="miter" fill="none" stroke="#000000" d="M 381.17 309.47 L 381.45 309.62 C 379.01 314.28 378.72 319.77 380.66 324.67 "/>
<path transform="matrix(.974437,0,0,-.9744483,99.79126,552.4427)" stroke-width="2.5" stroke-linecap="butt" stroke-miterlimit="10" stroke-linejoin="miter" fill="none" stroke="#00cc33" d="M 408.21 264.76 L 407.46 268.49 C 405.94 268.19 404.42 267.95 402.88 267.78 "/>
<path transform="matrix(.974437,0,0,-.9744483,99.79126,552.4427)" stroke-width="2.5" stroke-linecap="butt" stroke-miterlimit="10" stroke-linejoin="miter" fill="none" stroke="#00cc33" d="M 366.41 320.52 L 367.85 320.4 C 366.9 308.72 372.92 297.57 383.2 291.95 "/>
<path transform="matrix(.974437,0,0,-.9744483,99.79126,552.4427)" stroke-width="2.5" stroke-linecap="butt" stroke-miterlimit="10" stroke-linejoin="miter" fill="none" stroke="#ff6600" d="M 395.12 367.04 L 395.33 362.63 C 396.86 362.7 398.4 362.69 399.94 362.61 "/>
<path transform="matrix(.974437,0,0,-.9744483,99.79126,552.4427)" stroke-width="2.5" stroke-linecap="butt" stroke-miterlimit="10" stroke-linejoin="miter" fill="none" stroke="#33cccc" d="M 419.12 324.15 L 413.37 322.52 C 411.39 329.48 405.11 334.35 397.88 334.54 "/>
<path transform="matrix(.974437,0,0,-.9744483,99.79126,552.4427)" stroke-width="2.5" stroke-linecap="butt" stroke-miterlimit="10" stroke-linejoin="miter" fill="none" stroke="#000000" d="M 415.7 313.88 L 414.5 314.15 C 413.43 309.4 410.42 305.32 406.2 302.88 C 401.99 300.44 396.95 299.87 392.29 301.31 "/>
<path transform="matrix(.974437,0,0,-.9744483,99.79126,552.4427)" stroke-width="2.5" stroke-linecap="butt" stroke-miterlimit="10" stroke-linejoin="miter" fill="none" stroke="#00cc33" d="M 298.02 350.66 L 354.34 332.16 C 354.64 333.08 354.97 333.98 355.33 334.87 "/>
<path transform="matrix(.974437,0,0,-.9744483,99.79126,552.4427)" stroke-width="2.5" stroke-linecap="butt" stroke-miterlimit="10" stroke-linejoin="miter" fill="none" stroke="#00cc33" d="M 269.84 447.66 L 335.2 381.25 C 336.21 382.24 337.23 383.2 338.28 384.14 "/>
<path transform="matrix(.974437,0,0,-.9744483,99.79126,552.4427)" stroke-width="2.5" stroke-linecap="butt" stroke-miterlimit="10" stroke-linejoin="miter" fill="none" stroke="#ff6600" d="M 451.47 491.72 L 408.16 352.43 C 406.75 352.87 405.31 353.22 403.86 353.49 "/>
<path transform="matrix(.974437,0,0,-.9744483,99.79126,552.4427)" stroke-width="2.5" stroke-linecap="butt" stroke-miterlimit="10" stroke-linejoin="miter" fill="none" stroke="#00cc33" d="M 278.32 180.51 L 311.54 218.85 C 310.49 219.76 309.46 220.69 308.44 221.63 "/>
<path transform="matrix(.974437,0,0,-.9744483,99.79126,552.4427)" stroke-width="2.5" stroke-linecap="butt" stroke-miterlimit="10" stroke-linejoin="miter" fill="none" stroke="#ff6600" d="M 404.72 342.56 L 403.84 339.58 C 401.95 340.14 399.99 340.45 398.01 340.5 "/>
<path transform="matrix(.974437,0,0,-.9744483,99.79126,552.4427)" stroke-width="2.5" stroke-linecap="butt" stroke-miterlimit="10" stroke-linejoin="miter" fill="none" stroke="#ff6600" d="M 394.57 499.9 L 396.62 370.82 C 397.18 370.83 397.74 370.83 398.29 370.82 "/>
<path transform="matrix(.974437,0,0,-.9744483,99.79126,552.4427)" stroke-width="2.5" stroke-linecap="butt" stroke-miterlimit="10" stroke-linejoin="miter" fill="none" stroke="#00cc33" d="M 378.99 152.44 L 391.62 265.66 C 387.7 266.1 383.85 266.97 380.13 268.27 "/>
<path transform="matrix(.974437,0,0,-.9744483,99.79126,552.4427)" stroke-width="2.5" stroke-linecap="butt" stroke-miterlimit="10" stroke-linejoin="miter" fill="none" stroke="#00cc33" d="M 520.89 184.36 L 416.15 297.76 C 411.91 293.84 406.55 291.36 400.82 290.65 "/>
<path transform="matrix(.974437,0,0,-.9744483,99.79126,552.4427)" stroke-width="2.5" stroke-linecap="butt" stroke-miterlimit="10" stroke-linejoin="miter" fill="none" stroke="#ff6600" d="M 440.34 494.79 L 428.31 445.19 C 426.97 445.51 425.61 445.82 424.26 446.1 "/>
<path transform="matrix(.974437,0,0,-.9744483,99.79126,552.4427)" stroke-width="2.5" stroke-linecap="butt" stroke-miterlimit="10" stroke-linejoin="miter" fill="none" stroke="#00cc33" d="M 340.52 270.22 L 365.99 291.6 C 369.34 287.61 373.42 284.29 378.01 281.82 "/>
<path transform="matrix(.974437,0,0,-.9744483,99.79126,552.4427)" stroke-width="2.5" stroke-linecap="butt" stroke-miterlimit="10" stroke-linejoin="miter" fill="none" stroke="#00cc33" d="M 216.36 335.3 L 364.74 321.13 C 364.51 318.74 364.54 316.33 364.84 313.95 "/>
<path transform="matrix(.974437,0,0,-.9744483,99.79126,552.4427)" stroke-width="2.5" stroke-linecap="butt" stroke-miterlimit="10" stroke-linejoin="miter" fill="none" stroke="#cc0066" d="M 579.37 318 L 558.52 318 C 558.52 316.3 558.49 314.6 558.44 312.89 "/>
<path transform="matrix(.974437,0,0,-.9744483,99.79126,552.4427)" stroke-width="2.5" stroke-linecap="butt" stroke-miterlimit="10" stroke-linejoin="miter" fill="none" stroke="#00cc33" d="M 399.3 201.48 L 398.26 267.5 C 399.8 267.52 401.34 267.62 402.88 267.78 "/>
<path transform="matrix(.974437,0,0,-.9744483,99.79126,552.4427)" stroke-width="2.5" stroke-linecap="butt" stroke-miterlimit="10" stroke-linejoin="miter" fill="none" stroke="#00cc33" d="M 235.76 234.64 L 314.94 275.46 C 314.26 276.77 313.62 278.1 313.01 279.44 "/>
<path transform="matrix(.974437,0,0,-.9744483,99.79126,552.4427)" stroke-width="2.5" stroke-linecap="butt" stroke-miterlimit="10" stroke-linejoin="miter" fill="none" stroke="#00cc33" d="M 250.1 223.3 L 361.37 294.81 C 359.7 297.4 358.32 300.16 357.25 303.05 "/>
<path transform="matrix(.974437,0,0,-.9744483,99.79126,552.4427)" stroke-width="2.5" stroke-linecap="butt" stroke-miterlimit="10" stroke-linejoin="miter" fill="none" stroke="#33cccc" d="M 439.59 354.51 L 431.13 347.18 C 431.98 346.2 432.78 345.19 433.55 344.14 "/>
<path transform="matrix(.974437,0,0,-.9744483,99.79126,552.4427)" stroke-width="2.5" stroke-linecap="butt" stroke-miterlimit="10" stroke-linejoin="miter" fill="none" stroke="#ff6600" d="M 424.26 446.1 L 408.11 368.92 C 407.3 369.09 406.49 369.24 405.67 369.37 "/>
<path transform="matrix(.974437,0,0,-.9744483,99.79126,552.4427)" stroke-width="2.5" stroke-linecap="butt" stroke-miterlimit="10" stroke-linejoin="miter" fill="none" stroke="#00cc33" d="M 415.47 257.1 L 412.86 265.91 C 411.33 265.46 409.78 265.08 408.21 264.76 "/>
<path transform="matrix(.974437,0,0,-.9744483,99.79126,552.4427)" stroke-width="2.5" stroke-linecap="butt" stroke-miterlimit="10" stroke-linejoin="miter" fill="none" stroke="#00cc33" d="M 216.36 300.71 L 337.75 312.3 C 337.84 311.35 337.95 310.41 338.09 309.47 "/>
<path transform="matrix(.974437,0,0,-.9744483,99.79126,552.4427)" stroke-width="2.5" stroke-linecap="butt" stroke-miterlimit="10" stroke-linejoin="miter" fill="none" stroke="#00cc33" d="M 364.53 306.26 L 366.5 306.96 C 365.69 309.22 365.14 311.57 364.84 313.95 "/>
<path transform="matrix(.974437,0,0,-.9744483,99.79126,552.4427)" stroke-width="2.5" stroke-linecap="butt" stroke-miterlimit="10" stroke-linejoin="miter" fill="none" stroke="#00cc33" d="M 374.34 305.03 L 378.72 307.48 C 382.2 301.28 388.53 297.2 395.62 296.59 "/>
<path transform="matrix(.974437,0,0,-.9744483,99.79126,552.4427)" stroke-width="2.5" stroke-linecap="butt" stroke-miterlimit="10" stroke-linejoin="miter" fill="none" stroke="#00cc33" d="M 220 358.08 L 320.38 335.41 C 320.2 334.6 320.03 333.78 319.87 332.96 "/>
<path transform="matrix(.974437,0,0,-.9744483,99.79126,552.4427)" stroke-width="2.5" stroke-linecap="butt" stroke-miterlimit="10" stroke-linejoin="miter" fill="none" stroke="#00cc33" d="M 325.28 304.09 L 338.56 306.65 C 338.38 307.59 338.22 308.52 338.09 309.47 "/>
<path transform="matrix(.974437,0,0,-.9744483,99.79126,552.4427)" stroke-width="2.5" stroke-linecap="butt" stroke-miterlimit="10" stroke-linejoin="miter" fill="none" stroke="#00cc33" d="M 394.57 136.1 L 395.61 201.48 C 396.84 201.46 398.07 201.46 399.3 201.48 "/>
<path transform="matrix(.974437,0,0,-.9744483,99.79126,552.4427)" stroke-width="2.5" stroke-linecap="butt" stroke-miterlimit="10" stroke-linejoin="miter" fill="none" stroke="#ff6600" d="M 404.69 337.49 L 403.3 333.75 C 399.05 335.33 394.34 335.12 390.24 333.17 C 386.15 331.22 383.01 327.7 381.55 323.41 "/>
<path transform="matrix(.974437,0,0,-.9744483,99.79126,552.4427)" stroke-width="2.5" stroke-linecap="butt" stroke-miterlimit="10" stroke-linejoin="miter" fill="none" stroke="#00cc33" d="M 241.37 411.45 L 288.56 383.2 C 289.25 384.35 289.95 385.49 290.68 386.62 "/>
<path transform="matrix(.974437,0,0,-.9744483,99.79126,552.4427)" stroke-width="2.5" stroke-linecap="butt" stroke-miterlimit="10" stroke-linejoin="miter" fill="none" stroke="#33cccc" d="M 433.55 344.14 L 425.36 338.21 C 426.08 337.21 426.75 336.18 427.36 335.11 "/>
<path transform="matrix(.974437,0,0,-.9744483,99.79126,552.4427)" stroke-width="2.5" stroke-linecap="butt" stroke-miterlimit="10" stroke-linejoin="miter" fill="none" stroke="#00cc33" d="M 296.69 166.54 L 316.01 195.58 C 317.95 194.29 319.93 193.05 321.93 191.85 "/>
<path transform="matrix(.974437,0,0,-.9744483,99.79126,552.4427)" stroke-width="2.5" stroke-linecap="butt" stroke-miterlimit="10" stroke-linejoin="miter" fill="none" stroke="#ff6600" d="M 438.31 374.42 L 420.68 350.08 C 421.32 349.62 421.94 349.14 422.55 348.64 "/>
<path transform="matrix(.974437,0,0,-.9744483,99.79126,552.4427)" stroke-width="2.5" stroke-linecap="butt" stroke-miterlimit="10" stroke-linejoin="miter" fill="none" stroke="#cc0066" d="M 505.61 300.7 L 438.44 311.44 C 438.58 312.31 438.69 313.18 438.78 314.06 "/>
<path transform="matrix(.974437,0,0,-.9744483,99.79126,552.4427)" stroke-width="2.5" stroke-linecap="butt" stroke-miterlimit="10" stroke-linejoin="miter" fill="none" stroke="#00cc33" d="M 402.88 267.78 L 402.55 270.8 C 399.07 270.42 395.55 270.44 392.07 270.83 "/>
<path transform="matrix(.974437,0,0,-.9744483,99.79126,552.4427)" stroke-width="2.5" stroke-linecap="butt" stroke-miterlimit="10" stroke-linejoin="miter" fill="none" stroke="#00cc33" d="M 493.37 163.42 L 452.83 228.76 C 451.41 227.88 449.97 227.04 448.52 226.23 "/>
<path transform="matrix(.974437,0,0,-.9744483,99.79126,552.4427)" stroke-width="2.5" stroke-linecap="butt" stroke-miterlimit="10" stroke-linejoin="miter" fill="none" stroke="#000000" d="M 392.29 301.31 L 392.49 301.96 C 388.16 303.3 384.55 306.33 382.49 310.37 C 380.43 314.41 380.09 319.11 381.55 323.41 "/>
<path transform="matrix(.974437,0,0,-.9744483,99.79126,552.4427)" stroke-width="2.5" stroke-linecap="butt" stroke-miterlimit="10" stroke-linejoin="miter" fill="none" stroke="#0033ff" d="M 441.67 301.91 L 415.04 311.6 C 415.31 312.35 415.53 313.11 415.7 313.88 "/>
<path transform="matrix(.974437,0,0,-.9744483,99.79126,552.4427)" stroke-width="2.5" stroke-linecap="butt" stroke-miterlimit="10" stroke-linejoin="miter" fill="none" stroke="#00cc33" d="M 418.03 290.97 L 415.44 294.37 C 406.12 287.27 393.48 286.32 383.2 291.95 "/>
<path transform="matrix(.974437,0,0,-.9744483,99.79126,552.4427)" stroke-width="2.5" stroke-linecap="butt" stroke-miterlimit="10" stroke-linejoin="miter" fill="none" stroke="#00cc33" d="M 406.11 136.29 L 403 201.6 C 401.77 201.54 400.54 201.5 399.3 201.48 "/>
<path transform="matrix(.974437,0,0,-.9744483,99.79126,552.4427)" stroke-width="2.5" stroke-linecap="butt" stroke-miterlimit="10" stroke-linejoin="miter" fill="none" stroke="#33cccc" d="M 427.36 335.11 L 423.19 332.72 C 423.68 331.86 424.14 330.96 424.54 330.05 "/>
<path transform="matrix(.974437,0,0,-.9744483,99.79126,552.4427)" stroke-width="2.5" stroke-linecap="butt" stroke-miterlimit="10" stroke-linejoin="miter" fill="none" stroke="#9900ff" d="M 337.96 489.92 L 391.55 335.08 C 386.57 333.36 382.6 329.56 380.66 324.67 "/>
<path transform="matrix(.974437,0,0,-.9744483,99.79126,552.4427)" stroke-width="2.5" stroke-linecap="butt" stroke-miterlimit="10" stroke-linejoin="miter" fill="none" stroke="#00cc33" d="M 337.95 146.08 L 350.09 181.16 C 348.65 181.66 347.21 182.18 345.78 182.73 "/>
<path transform="matrix(.974437,0,0,-.9744483,99.79126,552.4427)" stroke-width="2.5" stroke-linecap="butt" stroke-miterlimit="10" stroke-linejoin="miter" fill="none" stroke="#00cc33" d="M 361.43 202.14 L 379.11 259.01 C 376.77 259.74 374.48 260.61 372.24 261.61 "/>
<path transform="matrix(.974437,0,0,-.9744483,99.79126,552.4427)" stroke-width="2.5" stroke-linecap="butt" stroke-miterlimit="10" stroke-linejoin="miter" fill="none" stroke="#00cc33" d="M 238.6 254.41 L 311.27 283.5 C 311.82 282.13 312.4 280.78 313.01 279.44 "/>
<path transform="matrix(.974437,0,0,-.9744483,99.79126,552.4427)" stroke-width="2.5" stroke-linecap="butt" stroke-miterlimit="10" stroke-linejoin="miter" fill="none" stroke="#00cc33" d="M 308.44 221.63 L 351.71 268.48 C 352.5 267.75 353.3 267.05 354.12 266.36 "/>
<path transform="matrix(.974437,0,0,-.9744483,99.79126,552.4427)" stroke-width="2.5" stroke-linecap="butt" stroke-miterlimit="10" stroke-linejoin="miter" fill="none" stroke="#ff6600" d="M 398.01 340.5 L 397.97 338.79 C 400.27 338.73 402.54 338.29 404.69 337.49 "/>
<path transform="matrix(.974437,0,0,-.9744483,99.79126,552.4427)" stroke-width="2.5" stroke-linecap="butt" stroke-miterlimit="10" stroke-linejoin="miter" fill="none" stroke="#00cc33" d="M 536.82 201.07 L 500.88 231.22 C 499.96 230.13 499.02 229.05 498.07 227.99 "/>
<path transform="matrix(.974437,0,0,-.9744483,99.79126,552.4427)" stroke-width="2.5" stroke-linecap="butt" stroke-miterlimit="10" stroke-linejoin="miter" fill="none" stroke="#33cccc" d="M 438.35 323.55 L 419.77 321.03 C 419.63 322.09 419.41 323.13 419.12 324.15 "/>
<path transform="matrix(.974437,0,0,-.9744483,99.79126,552.4427)" stroke-width="2.5" stroke-linecap="butt" stroke-miterlimit="10" stroke-linejoin="miter" fill="none" stroke="#33cccc" d="M 534.16 377.83 L 429.02 331.81 C 428.52 332.94 427.97 334.04 427.36 335.11 "/>
<path transform="matrix(.974437,0,0,-.9744483,99.79126,552.4427)" stroke-width="2.5" stroke-linecap="butt" stroke-miterlimit="10" stroke-linejoin="miter" fill="none" stroke="#00cc33" d="M 338.09 309.47 L 344.12 310.33 C 344.39 308.43 344.77 306.54 345.24 304.68 "/>
<path transform="matrix(.974437,0,0,-.9744483,99.79126,552.4427)" stroke-width="2.5" stroke-linecap="butt" stroke-miterlimit="10" stroke-linejoin="miter" fill="none" stroke="#33cccc" d="M 468.84 374.14 L 441.28 352.47 C 440.73 353.16 440.17 353.85 439.59 354.51 "/>
<path transform="matrix(.974437,0,0,-.9744483,99.79126,552.4427)" stroke-width="2.5" stroke-linecap="butt" stroke-miterlimit="10" stroke-linejoin="miter" fill="none" stroke="#00cc33" d="M 215.63 323.77 L 362.51 319.11 C 362.38 314.74 363.06 310.38 364.53 306.26 "/>
<path transform="matrix(.974437,0,0,-.9744483,99.79126,552.4427)" stroke-width="2.5" stroke-linecap="butt" stroke-miterlimit="10" stroke-linejoin="miter" fill="none" stroke="#cc0066" d="M 558.44 312.89 L 438.94 316.69 C 438.91 315.81 438.86 314.93 438.78 314.06 "/>
<path transform="matrix(.974437,0,0,-.9744483,99.79126,552.4427)" stroke-width="2.5" stroke-linecap="butt" stroke-miterlimit="10" stroke-linejoin="miter" fill="none" stroke="#00cc33" d="M 462.38 148.06 L 426.76 241.3 C 428.59 241.99 430.39 242.76 432.16 243.58 "/>
<path transform="matrix(.974437,0,0,-.9744483,99.79126,552.4427)" stroke-width="2.5" stroke-linecap="butt" stroke-miterlimit="10" stroke-linejoin="miter" fill="none" stroke="#ff6600" d="M 446.37 394.12 L 435.12 376.6 C 436.2 375.91 437.27 375.18 438.31 374.42 "/>
<path transform="matrix(.974437,0,0,-.9744483,99.79126,552.4427)" stroke-width="2.5" stroke-linecap="butt" stroke-miterlimit="10" stroke-linejoin="miter" fill="none" stroke="#00cc33" d="M 287.28 462.77 L 340.3 393.1 C 339.51 392.5 338.72 391.88 337.95 391.25 "/>
<path transform="matrix(.974437,0,0,-.9744483,99.79126,552.4427)" stroke-width="2.5" stroke-linecap="butt" stroke-miterlimit="10" stroke-linejoin="miter" fill="none" stroke="#ff6600" d="M 406.11 499.71 L 399.97 370.77 C 399.41 370.8 398.85 370.81 398.29 370.82 "/>
<path transform="matrix(.974437,0,0,-.9744483,99.79126,552.4427)" stroke-width="2.5" stroke-linecap="butt" stroke-miterlimit="10" stroke-linejoin="miter" fill="none" stroke="#00cc33" d="M 556.43 229.55 L 416.86 307.21 C 416.74 307 416.63 306.8 416.5 306.6 "/>
<path transform="matrix(.974437,0,0,-.9744483,99.79126,552.4427)" stroke-width="2.5" stroke-linecap="butt" stroke-miterlimit="10" stroke-linejoin="miter" fill="none" stroke="#00cc33" d="M 338.28 384.14 L 375.92 342.07 C 375.35 341.56 374.79 341.03 374.26 340.48 "/>
<path transform="matrix(.974437,0,0,-.9744483,99.79126,552.4427)" stroke-width="2.5" stroke-linecap="butt" stroke-miterlimit="10" stroke-linejoin="miter" fill="none" stroke="#00cc33" d="M 392.07 270.83 L 392.79 277.2 C 387.62 277.79 382.6 279.36 378.01 281.82 "/>
<path transform="matrix(.974437,0,0,-.9744483,99.79126,552.4427)" stroke-width="2.5" stroke-linecap="butt" stroke-miterlimit="10" stroke-linejoin="miter" fill="none" stroke="#00cc33" d="M 406.71 299.92 L 405.83 301.63 C 396.85 297.04 385.85 300.54 381.17 309.47 "/>
<path transform="matrix(.974437,0,0,-.9744483,99.79126,552.4427)" stroke-width="2.5" stroke-linecap="butt" stroke-miterlimit="10" stroke-linejoin="miter" fill="none" stroke="#ffcc00" d="M 387.9 335.85 L 388.77 334.21 C 379.88 329.45 376.49 318.41 381.17 309.47 "/>
<path transform="matrix(.974437,0,0,-.9744483,99.79126,552.4427)" stroke-width="2.5" stroke-linecap="butt" stroke-miterlimit="10" stroke-linejoin="miter" fill="none" stroke="#00cc33" d="M 222.9 266.75 L 331.48 298.63 C 331.94 297.06 332.45 295.5 333.03 293.97 "/>
<path transform="matrix(.974437,0,0,-.9744483,99.79126,552.4427)" stroke-width="2.5" stroke-linecap="butt" stroke-miterlimit="10" stroke-linejoin="miter" fill="none" stroke="#00cc33" d="M 383.2 291.95 L 384.23 293.83 C 389.29 291.06 395.1 289.95 400.82 290.65 "/>
<path transform="matrix(.974437,0,0,-.9744483,99.79126,552.4427)" stroke-width="2.5" stroke-linecap="butt" stroke-miterlimit="10" stroke-linejoin="miter" fill="none" stroke="#00cc33" d="M 483.37 157.65 L 452.88 214.55 C 451.79 213.97 450.69 213.4 449.57 212.85 "/>
<path transform="matrix(.974437,0,0,-.9744483,99.79126,552.4427)" stroke-width="2.5" stroke-linecap="butt" stroke-miterlimit="10" stroke-linejoin="miter" fill="none" stroke="#ff6600" d="M 422.55 348.64 L 410.63 334.09 C 408.85 335.54 406.85 336.69 404.69 337.49 "/>
<path transform="matrix(.974437,0,0,-.9744483,99.79126,552.4427)" stroke-width="2.5" stroke-linecap="butt" stroke-miterlimit="10" stroke-linejoin="miter" fill="none" stroke="#00cc33" d="M 357.25 303.05 L 362.39 304.96 C 363.96 300.74 366.29 296.83 369.25 293.42 "/>
<path transform="matrix(.974437,0,0,-.9744483,99.79126,552.4427)" stroke-width="2.5" stroke-linecap="butt" stroke-miterlimit="10" stroke-linejoin="miter" fill="none" stroke="#0033ff" d="M 566.34 250.39 L 504.34 275.21 C 503.88 274.08 503.41 272.96 502.93 271.84 "/>
<path transform="matrix(.974437,0,0,-.9744483,99.79126,552.4427)" stroke-width="2.5" stroke-linecap="butt" stroke-miterlimit="10" stroke-linejoin="miter" fill="none" stroke="#00cc33" d="M 371.57 137.93 L 373.75 153.11 C 375.49 152.86 377.24 152.64 378.99 152.44 "/>
<path transform="matrix(.974437,0,0,-.9744483,99.79126,552.4427)" stroke-width="2.5" stroke-linecap="butt" stroke-miterlimit="10" stroke-linejoin="miter" fill="none" stroke="#00cc33" d="M 355.33 334.87 L 366.06 330.57 C 365.66 329.58 365.31 328.56 365.01 327.53 "/>
<path transform="matrix(.974437,0,0,-.9744483,99.79126,552.4427)" stroke-width="2.5" stroke-linecap="butt" stroke-miterlimit="10" stroke-linejoin="miter" fill="none" stroke="#00cc33" d="M 220 277.92 L 325.76 301.81 C 325.58 302.57 325.42 303.33 325.28 304.09 "/>
<path transform="matrix(.974437,0,0,-.9744483,99.79126,552.4427)" stroke-width="2.5" stroke-linecap="butt" stroke-miterlimit="10" stroke-linejoin="miter" fill="none" stroke="#33cccc" d="M 556.43 406.45 L 468.37 357.46 C 467.95 358.21 467.52 358.95 467.08 359.69 "/>
<path transform="matrix(.974437,0,0,-.9744483,99.79126,552.4427)" stroke-width="2.5" stroke-linecap="butt" stroke-miterlimit="10" stroke-linejoin="miter" fill="none" stroke="#ffcc00" d="M 327.17 485.8 L 348.21 435.58 C 346.96 435.06 345.73 434.52 344.5 433.96 "/>
<path transform="matrix(.974437,0,0,-.9744483,99.79126,552.4427)" stroke-width="2.5" stroke-linecap="butt" stroke-miterlimit="10" stroke-linejoin="miter" fill="none" stroke="#00cc33" d="M 440.35 141.21 L 421.1 220.56 C 420.07 220.31 419.03 220.07 417.99 219.86 "/>
<path transform="matrix(.974437,0,0,-.9744483,99.79126,552.4427)" stroke-width="2.5" stroke-linecap="butt" stroke-miterlimit="10" stroke-linejoin="miter" fill="none" stroke="#33cccc" d="M 448.13 328.61 L 437.85 326.45 C 438.05 325.49 438.22 324.52 438.35 323.55 "/>
<path transform="matrix(.974437,0,0,-.9744483,99.79126,552.4427)" stroke-width="2.5" stroke-linecap="butt" stroke-miterlimit="10" stroke-linejoin="miter" fill="none" stroke="#00cc33" d="M 365.01 327.53 L 367.57 326.78 C 366.97 324.74 366.58 322.64 366.41 320.52 "/>
<path transform="matrix(.974437,0,0,-.9744483,99.79126,552.4427)" stroke-width="2.5" stroke-linecap="butt" stroke-miterlimit="10" stroke-linejoin="miter" fill="none" stroke="#00cc33" d="M 356.55 149.39 L 368.85 200.09 C 366.36 200.7 363.88 201.38 361.43 202.14 "/>
<path transform="matrix(.974437,0,0,-.9744483,99.79126,552.4427)" stroke-width="2.5" stroke-linecap="butt" stroke-miterlimit="10" stroke-linejoin="miter" fill="none" stroke="#ff6600" d="M 371.57 498.07 L 375.72 469.16 C 377.32 469.39 378.92 469.6 380.53 469.77 "/>
<path transform="matrix(.974437,0,0,-.9744483,99.79126,552.4427)" stroke-width="2.5" stroke-linecap="butt" stroke-miterlimit="10" stroke-linejoin="miter" fill="none" stroke="#33cccc" d="M 467.08 359.69 L 435.69 340.89 C 435.02 342 434.31 343.09 433.55 344.14 "/>
<path transform="matrix(.974437,0,0,-.9744483,99.79126,552.4427)" stroke-width="2.5" stroke-linecap="butt" stroke-miterlimit="10" stroke-linejoin="miter" fill="none" stroke="#00cc33" d="M 345.24 304.68 L 349.87 305.86 C 349.43 307.59 349.08 309.34 348.83 311.11 "/>
<path transform="matrix(.974437,0,0,-.9744483,99.79126,552.4427)" stroke-width="2.5" stroke-linecap="butt" stroke-miterlimit="10" stroke-linejoin="miter" fill="none" stroke="#ff6600" d="M 429.05 497.16 L 420.18 446.89 C 421.55 446.65 422.9 446.39 424.26 446.1 "/>
<path transform="matrix(.974437,0,0,-.9744483,99.79126,552.4427)" stroke-width="2.5" stroke-linecap="butt" stroke-miterlimit="10" stroke-linejoin="miter" fill="none" stroke="#33cccc" d="M 424.54 330.05 L 418.04 327.16 C 418.47 326.18 418.83 325.18 419.12 324.15 "/>
<path transform="matrix(.974437,0,0,-.9744483,99.79126,552.4427)" stroke-width="2.5" stroke-linecap="butt" stroke-miterlimit="10" stroke-linejoin="miter" fill="none" stroke="#00cc33" d="M 383.04 136.65 L 384.25 151.94 C 382.5 152.08 380.74 152.25 378.99 152.44 "/>
<path transform="matrix(.974437,0,0,-.9744483,99.79126,552.4427)" stroke-width="2.5" stroke-linecap="butt" stroke-miterlimit="10" stroke-linejoin="miter" fill="none" stroke="#00cc33" d="M 432.16 243.58 L 427.49 253.58 C 426.05 252.91 424.58 252.28 423.09 251.71 "/>
<path transform="matrix(.974437,0,0,-.9744483,99.79126,552.4427)" stroke-width="2.5" stroke-linecap="butt" stroke-miterlimit="10" stroke-linejoin="miter" fill="none" stroke="#ff6600" d="M 462.38 487.94 L 434.74 415.59 C 435.77 415.2 436.8 414.79 437.82 414.36 "/>
<path transform="matrix(.974437,0,0,-.9744483,99.79126,552.4427)" stroke-width="2.5" stroke-linecap="butt" stroke-miterlimit="10" stroke-linejoin="miter" fill="none" stroke="#ffcc00" d="M 344.5 433.96 L 389.05 336.42 C 388.66 336.24 388.27 336.05 387.9 335.85 "/>
<path transform="matrix(.974437,0,0,-.9744483,99.79126,552.4427)" stroke-width="2.5" stroke-linecap="butt" stroke-miterlimit="10" stroke-linejoin="miter" fill="none" stroke="#ffcc00" d="M 316.67 481 L 340.85 432.22 C 342.06 432.82 343.27 433.4 344.5 433.96 "/>
<path transform="matrix(.974437,0,0,-.9744483,99.79126,552.4427)" stroke-width="2.5" stroke-linecap="butt" stroke-miterlimit="10" stroke-linejoin="miter" fill="none" stroke="#00cc33" d="M 278.32 455.49 L 335.65 389.33 C 336.41 389.98 337.17 390.62 337.95 391.25 "/>
<path transform="matrix(.974437,0,0,-.9744483,99.79126,552.4427)" stroke-width="2.5" stroke-linecap="butt" stroke-miterlimit="10" stroke-linejoin="miter" fill="none" stroke="#00cc33" d="M 360.2 139.94 L 361.92 148.18 C 360.13 148.55 358.33 148.96 356.55 149.39 "/>
<path transform="matrix(.974437,0,0,-.9744483,99.79126,552.4427)" stroke-width="2.5" stroke-linecap="butt" stroke-miterlimit="10" stroke-linejoin="miter" fill="none" stroke="#00cc33" d="M 306.07 394.69 L 372.71 338.76 C 373.21 339.35 373.72 339.92 374.26 340.48 "/>
<path transform="matrix(.974437,0,0,-.9744483,99.79126,552.4427)" stroke-width="2.5" stroke-linecap="butt" stroke-miterlimit="10" stroke-linejoin="miter" fill="none" stroke="#00cc33" d="M 348.83 311.11 L 354.98 311.98 C 355.41 308.93 356.17 305.94 357.25 303.05 "/>
<path transform="matrix(.974437,0,0,-.9744483,99.79126,552.4427)" stroke-width="2.5" stroke-linecap="butt" stroke-miterlimit="10" stroke-linejoin="miter" fill="none" stroke="#00cc33" d="M 230.8 390.94 L 238.9 387.4 C 239.63 389.07 240.39 390.74 241.18 392.39 "/>
<path transform="matrix(.974437,0,0,-.9744483,99.79126,552.4427)" stroke-width="2.5" stroke-linecap="butt" stroke-miterlimit="10" stroke-linejoin="miter" fill="none" stroke="#00cc33" d="M 448.52 226.23 L 437.38 246.25 C 435.67 245.3 433.93 244.41 432.16 243.58 "/>
<path transform="matrix(.974437,0,0,-.9744483,99.79126,552.4427)" stroke-width="2.5" stroke-linecap="butt" stroke-miterlimit="10" stroke-linejoin="miter" fill="none" stroke="#00cc33" d="M 417.13 302.02 L 414.14 304.45 C 409.65 298.93 402.72 295.98 395.62 296.59 "/>
<path transform="matrix(.974437,0,0,-.9744483,99.79126,552.4427)" stroke-width="2.5" stroke-linecap="butt" stroke-miterlimit="10" stroke-linejoin="miter" fill="none" stroke="#cc0066" d="M 576.09 283.57 L 505 297.27 C 505.22 298.41 505.42 299.55 505.61 300.7 "/>
<path transform="matrix(.974437,0,0,-.9744483,99.79126,552.4427)" stroke-width="2.5" stroke-linecap="butt" stroke-miterlimit="10" stroke-linejoin="miter" fill="none" stroke="#000000" d="M 397.46 318 L 397.88 334.54 "/>
<path transform="matrix(.974437,0,0,-.9744483,99.79126,552.4427)" stroke-width="2.5" stroke-linecap="butt" stroke-miterlimit="10" stroke-linejoin="miter" fill="none" stroke="#00cc33" d="M 449.57 212.85 L 444.09 223.9 C 445.59 224.64 447.06 225.42 448.52 226.23 "/>
<path transform="matrix(.974437,0,0,-.9744483,99.79126,552.4427)" stroke-width="2.5" stroke-linecap="butt" stroke-miterlimit="10" stroke-linejoin="miter" fill="none" stroke="#cc0066" d="M 438.78 314.06 L 416.08 316.22 C 416 315.44 415.88 314.65 415.7 313.88 "/>
<path transform="matrix(.974437,0,0,-.9744483,99.79126,552.4427)" stroke-width="2.5" stroke-linecap="butt" stroke-miterlimit="10" stroke-linejoin="miter" fill="none" stroke="#ff6600" d="M 405.67 369.37 L 404.51 362.12 C 403 362.36 401.47 362.52 399.94 362.61 "/>
<path transform="matrix(.974437,0,0,-.9744483,99.79126,552.4427)" stroke-width="2.5" stroke-linecap="butt" stroke-miterlimit="10" stroke-linejoin="miter" fill="none" stroke="#33cccc" d="M 576.09 352.43 L 471.66 332.3 C 471.81 331.52 471.95 330.73 472.08 329.94 "/>
<path transform="matrix(.974437,0,0,-.9744483,99.79126,552.4427)" stroke-width="2.5" stroke-linecap="butt" stroke-miterlimit="10" stroke-linejoin="miter" fill="none" stroke="#00cc33" d="M 319.87 332.96 L 364.25 324.4 C 364.45 325.46 364.71 326.5 365.01 327.53 "/>
<path transform="matrix(.974437,0,0,-.9744483,99.79126,552.4427)" stroke-width="2.5" stroke-linecap="butt" stroke-miterlimit="10" stroke-linejoin="miter" fill="none" stroke="#00cc33" d="M 502.98 169.81 L 417.16 290.34 C 417.45 290.54 417.74 290.76 418.03 290.97 "/>
<path transform="matrix(.974437,0,0,-.9744483,99.79126,552.4427)" stroke-width="2.5" stroke-linecap="butt" stroke-miterlimit="10" stroke-linejoin="miter" fill="none" stroke="#ff6600" d="M 417.62 498.8 L 403.22 369.7 C 404.04 369.61 404.86 369.5 405.67 369.37 "/>
<path transform="matrix(.974437,0,0,-.9744483,99.79126,552.4427)" stroke-width="2.5" stroke-linecap="butt" stroke-miterlimit="10" stroke-linejoin="miter" fill="none" stroke="#00cc33" d="M 378.01 281.82 L 379.74 285.05 C 375.77 287.19 372.21 290.02 369.25 293.42 "/>
<path transform="matrix(.974437,0,0,-.9744483,99.79126,552.4427)" stroke-width="2.5" stroke-linecap="butt" stroke-miterlimit="10" stroke-linejoin="miter" fill="none" stroke="#33cccc" d="M 570.29 374.77 L 425.62 327.25 C 425.31 328.2 424.95 329.14 424.54 330.05 "/>
<path transform="matrix(.974437,0,0,-.9744483,99.79126,552.4427)" stroke-width="2.5" stroke-linecap="butt" stroke-miterlimit="10" stroke-linejoin="miter" fill="none" stroke="#33cccc" d="M 577.91 341.03 L 472.42 327.57 C 472.32 328.36 472.2 329.15 472.08 329.94 "/>
<path transform="matrix(.974437,0,0,-.9744483,99.79126,552.4427)" stroke-width="2.5" stroke-linecap="butt" stroke-miterlimit="10" stroke-linejoin="miter" fill="none" stroke="#00cc33" d="M 416.5 306.6 L 414.88 307.57 C 412.93 304.31 410.09 301.66 406.71 299.92 "/>
<path transform="matrix(.974437,0,0,-.9744483,99.79126,552.4427)" stroke-width="2.5" stroke-linecap="butt" stroke-miterlimit="10" stroke-linejoin="miter" fill="none" stroke="#00cc33" d="M 400.82 290.65 L 400.7 291.7 C 390.02 290.38 379.61 295.65 374.34 305.03 "/>
<path transform="matrix(.974437,0,0,-.9744483,99.79126,552.4427)" stroke-width="2.5" stroke-linecap="butt" stroke-miterlimit="10" stroke-linejoin="miter" fill="none" stroke="#33cccc" d="M 550.5 416.36 L 465.72 361.88 C 466.19 361.15 466.64 360.42 467.08 359.69 "/>
<path transform="matrix(.974437,0,0,-.9744483,99.79126,552.4427)" stroke-width="2.5" stroke-linecap="butt" stroke-miterlimit="10" stroke-linejoin="miter" fill="none" stroke="#ff6600" d="M 493.37 472.58 L 480.52 451.87 C 479.1 452.75 477.67 453.61 476.23 454.44 "/>
<path transform="matrix(.974437,0,0,-.9744483,99.79126,552.4427)" stroke-width="2.5" stroke-linecap="butt" stroke-miterlimit="10" stroke-linejoin="miter" fill="none" stroke="#00cc33" d="M 473.03 152.52 L 446.21 211.24 C 447.34 211.76 448.46 212.29 449.57 212.85 "/>
<text xml:space="preserve" transform="matrix(.22973356 -.9469798 .9469688 .22973623 99.79126 552.4427)" font-size="10.999986" font-family="Helvetica"><tspan y="315.27937" x="594.6632 603.4698 610.4394 618.63">OTUD</tspan><tspan y="315.2794" x="626.8206 633.1852">6B</tspan></text>
<text xml:space="preserve" transform="matrix(.7659576 -.6023661 .6023591 .76596656 99.79126 552.4427)" font-size="10.99998" font-family="Helvetica"><tspan y="-.27792359" x="281.07804 289.33354 296.984 304.6345 311.064">USP38</tspan></text>
<text xml:space="preserve" transform="matrix(.9700243 .0926312 -.092630129 .97003558 99.79126 552.4427)" font-size="10.999983" font-family="Helvetica"><tspan y="-350.3481" x="137.50856">U</tspan><tspan y="-350.34815" x="145.73986 153.36615 160.99243 167.3977">SP30</tspan></text>
<text xml:space="preserve" transform="matrix(.974437 0 -0 .9744483 99.79126 552.4427)" font-size="11" font-family="Helvetica"><tspan y="-314" x="589.37 597.0733 604.1606 611.8639 620.1722">ATXN3</tspan></text>
<text xml:space="preserve" transform="matrix(.86611369 -.44651897 .44651378 .86612376 99.79126 552.4427)" font-size="11.000062" font-family="Helvetica"><tspan y="-96.5309" x="271.06623">U</tspan><tspan y="-96.53091" x="279.27229">S</tspan><tspan y="-96.5309" x="286.8733">P</tspan><tspan y="-96.53089" x="294.47434">2</tspan><tspan y="-96.5309" x="300.85438">4</tspan></text>
<text xml:space="preserve" transform="matrix(.10800641 .968444 -.9684328 .10800766 99.79126 552.4427)" font-size="11.000019" font-family="Helvetica"><tspan y="-426.25117" x="-80.067768 -71.85845 -64.25414 -56.649824 -50.266519">USP50</tspan></text>
<text xml:space="preserve" transform="matrix(.72621086 .6497346 -.6497271 .7262193 99.79126 552.4427)" font-size="10.99997" font-family="Helvetica"><tspan y="-498.00685" x="-143.74396">U</tspan><tspan y="-498.00688" x="-135.5512">S</tspan><tspan y="-498.00685" x="-127.963428 -120.37564 -114.008869">P28</tspan></text>
<text xml:space="preserve" transform="matrix(.9257853 .30405776 -.3040542 .92579606 99.79126 552.4427)" font-size="10.999977" font-family="Helvetica"><tspan y="-422.1477" x="470.30854 478.55635 486.80415 495.05195">UCHL</tspan><tspan y="-422.14768" x="501.47377">5</tspan></text>
<text xml:space="preserve" transform="matrix(.9700243 -.0926312 .092630129 .97003558 99.79126 552.4427)" font-size="10.999983" font-family="Helvetica"><tspan y="-274.78553" x="197.96764 206.27042 213.96822 221.66602 228.14279">USP48</tspan></text>
<text xml:space="preserve" transform="matrix(.950495 .21468069 -.21467819 .95050606 99.79126 552.4427)" font-size="11.000001" font-family="Helvetica"><tspan y="-393.74794" x="89.707538 97.955348 105.59815 113.24095 119.66275">USP45</tspan></text>
<text xml:space="preserve" transform="matrix(.7659576 .6023661 -.6023591 .76596656 99.79126 552.4427)" font-size="10.99998" font-family="Helvetica"><tspan y="-491.65443" x="-112.0813 -103.94353 -96.41075">USP</tspan><tspan y="-491.65446" x="-88.87796">2</tspan><tspan y="-491.65443" x="-82.56619">5</tspan></text>
<text xml:space="preserve" transform="matrix(.015464378 -.97432568 .97431436 .015464557 99.79126 552.4427)" font-size="10.999955" font-family="Helvetica"><tspan y="396.3609" x="96.3424">U</tspan><tspan y="396.36094" x="104.564868">S</tspan><tspan y="396.3609" x="112.18233 119.799808 126.19627">P33</tspan></text>
<text xml:space="preserve" transform="matrix(.8360488 .50055536 -.50054958 .8360585 99.79126 552.4427)" font-size="10.999983" font-family="Helvetica"><tspan y="-473.0015" x="-48.26648">U</tspan><tspan y="-473.00148" x="-40.48729 -33.31311 -26.138916 -20.185715">SP13</tspan></text>
<text xml:space="preserve" transform="matrix(.915671 -.33328165 .33327777 .9156816 99.79126 552.4427)" font-size="10.999972" font-family="Helvetica"><tspan y="-158.88578" x="254.33032 262.3548">US</tspan><tspan y="-158.88576" x="269.7743 277.19377 283.39225">P9Y</tspan></text>
<text xml:space="preserve" transform="matrix(.89269039 -.39068506 .39068053 .89270076 99.79126 552.4427)" font-size="11.000014" font-family="Helvetica"><tspan y="-127.97483" x="263.69017 271.77848 279.26179">USP</tspan><tspan y="-127.97482" x="286.74513">9</tspan><tspan y="-127.974819" x="293.00743">X</tspan></text>
<text xml:space="preserve" transform="matrix(.9046372 -.3621631 .3621589 .9046477 99.79126 552.4427)" font-size="11.000011" font-family="Helvetica"><tspan y="-143.50547" x="679.09976 686.3124">ST</tspan><tspan y="-143.50543" x="692.9091 700.1218 709.16049 716.37319">AMBP</tspan><tspan y="-143.50542" x="723.5859 729.5776">L1</tspan></text>
<text xml:space="preserve" transform="matrix(.5397601 -.81129637 .8112869 .5397664 99.79126 552.4427)" font-size="11.000001" font-family="Helvetica"><tspan y="158.75954" x="258.99336">U</tspan><tspan y="158.75955" x="266.75059">S</tspan><tspan y="158.75954" x="273.90278">P</tspan><tspan y="158.75955" x="281.055 286.9862">51</tspan></text>
<text xml:space="preserve" transform="matrix(.0772245 .97138348 -.9713722 .0772254 99.79126 552.4427)" font-size="10.999948" font-family="Helvetica"><tspan y="-417.41017" x="-515.4212 -506.50578 -499.42729 -491.1278 -482.8283">OTUD4</tspan></text>
<text xml:space="preserve" transform="matrix(.5137492 .82801279 -.8280031 .51375517 99.79126 552.4427)" font-size="11.000069" font-family="Helvetica"><tspan y="-501.38313" x="131.25731">U</tspan><tspan y="-501.38316" x="138.59435 145.3264">SP</tspan><tspan y="-501.38313" x="152.05847">1</tspan><tspan y="-501.38319" x="157.56949">1</tspan></text>
<text xml:space="preserve" transform="matrix(.97394636 -.030919133 .030918774 .97395768 99.79126 552.4427)" font-size="11.000039" font-family="Helvetica"><tspan y="-301.22846" x="179.42832">U</tspan><tspan y="-301.22843" x="187.70584 195.37837 203.0509 209.50243">SP40</tspan></text>
<text xml:space="preserve" transform="matrix(.48721657 -.8438981 .8438883 .48722223 99.79126 552.4427)" font-size="11.000044" font-family="Helvetica"><tspan y="189.20714" x="240.2042">U</tspan><tspan y="189.20713" x="248.22101">S</tspan><tspan y="189.20714" x="255.63285 263.04469">P2</tspan><tspan y="189.20716" x="269.2355 275.42634">7X</tspan></text>
<text xml:space="preserve" transform="matrix(.7052309 .6724488 -.672441 .70523908 99.79126 552.4427)" font-size="10.999975" font-family="Helvetica"><tspan y="-500.43153" x="260.126">U</tspan><tspan y="-500.43156" x="268.37379">S</tspan><tspan y="-500.43153" x="276.01655">P</tspan><tspan y="-500.43156" x="283.6593 290.0811">54</tspan></text>
<text xml:space="preserve" transform="matrix(.432719 -.8730976 .87308749 .43272404 99.79126 552.4427)" font-size="10.99998" font-family="Helvetica"><tspan y="218.90483" x="233.5058">U</tspan><tspan y="218.90482" x="241.60179">S</tspan><tspan y="218.90483" x="249.09278">P</tspan><tspan y="218.90485" x="256.58378 262.85377">22</tspan></text>
<text xml:space="preserve" transform="matrix(.5397601 .81129637 -.8112869 .5397664 99.79126 552.4427)" font-size="11.000001" font-family="Helvetica"><tspan y="-503.05653" x="-279.51637 -270.1004">MI</tspan><tspan y="-503.05647" x="-266.78944">N</tspan><tspan y="-503.0565" x="-258.5944">D</tspan><tspan y="-503.05647" x="-250.3994 -242.80942">Y3</tspan></text>
<text xml:space="preserve" transform="matrix(.046363594 .97334477 -.9733334 .046364134 99.79126 552.4427)" font-size="11.000028" font-family="Helvetica"><tspan y="-408.1343" x="-106.81198">U</tspan><tspan y="-408.13429" x="-98.64446">S</tspan><tspan y="-408.1343" x="-91.08194">P</tspan><tspan y="-408.13435" x="-83.519428">2</tspan><tspan y="-408.1343" x="-77.1779">0</tspan></text>
<text xml:space="preserve" transform="matrix(.3764745 -.89878436 .89877387 .37647889 99.79126 552.4427)" font-size="10.999977" font-family="Helvetica"><tspan y="247.7371" x="218.94399">U</tspan><tspan y="247.73709" x="227.14997 234.75095 242.35193 248.7319">SP42</tspan></text>
<text xml:space="preserve" transform="matrix(.72621086 -.6497346 .6497271 .7262193 99.79126 552.4427)" font-size="10.99997" font-family="Helvetica"><tspan y="32.0159" x="280.32118">U</tspan><tspan y="32.015909" x="288.52165">S</tspan><tspan y="32.0159" x="296.11714 303.71263 310.0871">P35</tspan></text>
<text xml:space="preserve" transform="matrix(.80262199 -.5525691 .55256268 .8026313 99.79126 552.4427)" font-size="11.000031" font-family="Helvetica"><tspan y="-32.551904" x="281.78358 289.59584">US</tspan><tspan y="-32.551897" x="296.80305 304.01026">P1</tspan><tspan y="-32.55191" x="309.9965">8</tspan></text>
<text xml:space="preserve" transform="matrix(.81974789 .5268275 -.52682146 .8197574 99.79126 552.4427)" font-size="10.999963" font-family="Helvetica"><tspan y="-478.40583" x="354.357">U</tspan><tspan y="-478.40577" x="361.97447">S</tspan><tspan y="-478.40583" x="368.98698 375.99946">PL</tspan><tspan y="-478.40577" x="381.79093">1</tspan></text>
<text xml:space="preserve" transform="matrix(.31870914 .9208538 -.92084309 .31871284 99.79126 552.4427)" font-size="10.999999" font-family="Helvetica"><tspan y="-475.60029" x="-389.43428 -382.89259">ZU</tspan><tspan y="-475.60026" x="-375.12989 -367.97218">P1</tspan></text>
<text xml:space="preserve" transform="matrix(.6144306 -.7563173 .7563085 .6144377 99.79126 552.4427)" font-size="11.000011" font-family="Helvetica"><tspan y="111.97159" x="689.3567 695.87747 703.61929">ZRA</tspan><tspan y="111.97162" x="710.7561 718.4979">NB</tspan><tspan y="111.97165" x="725.6347">1</tspan></text>
<text xml:space="preserve" transform="matrix(.80262199 .5525691 -.55256268 .8026313 99.79126 552.4427)" font-size="11.000031" font-family="Helvetica"><tspan y="-483.30989" x="-73.8698 -65.84308 -58.421327 -50.999605">USP5</tspan></text>
<text xml:space="preserve" transform="matrix(.19957479 .9537916 -.95378056 .19957711 99.79126 552.4427)" font-size="10.999981" font-family="Helvetica"><tspan y="-450.16029" x="-461.7815 -453.09153 -446.2385">OTU</tspan><tspan y="-450.16026" x="-438.16456">L</tspan><tspan y="-450.16029" x="-431.91654 -428.72657">IN</tspan></text>
<text xml:space="preserve" transform="matrix(.59012958 -.77542796 .77541896 .5901364 99.79126 552.4427)" font-size="10.999986" font-family="Helvetica"><tspan y="127.696559" x="272.8387">U</tspan><tspan y="127.69655" x="280.89399">S</tspan><tspan y="127.69653" x="288.34428">P</tspan><tspan y="127.69652" x="295.79457">3</tspan></text>
<text xml:space="preserve" transform="matrix(.74645909 -.6263668 .6263595 .74646779 99.79126 552.4427)" font-size="10.99998" font-family="Helvetica"><tspan y="15.882965" x="700.7984">C</tspan><tspan y="15.882935" x="708.7074">O</tspan><tspan y="15.882965" x="717.2324">P</tspan><tspan y="15.882935" x="724.5364">S</tspan><tspan y="15.882965" x="731.8404">5</tspan></text>
<text xml:space="preserve" transform="matrix(.96659776 .12335605 -.123354617 .966609 99.79126 552.4427)" font-size="10.999944" font-family="Helvetica"><tspan y="-361.75825" x="545.9167 551.1823">JO</tspan><tspan y="-361.7582" x="559.50607">S</tspan><tspan y="-361.75825" x="566.60867 574.3163">D1</tspan></text>
<text xml:space="preserve" transform="matrix(.31870914 -.9208538 .92084309 .31871284 99.79126 552.4427)" font-size="10.999999" font-family="Helvetica"><tspan y="275.5866" x="202.58847 210.83847">US</tspan><tspan y="275.58665" x="218.48348">P</tspan><tspan y="275.58668" x="226.12848 232.55246">36</tspan></text>
<text xml:space="preserve" transform="matrix(.48721657 .8438981 -.8438883 .48722223 99.79126 552.4427)" font-size="11.000044" font-family="Helvetica"><tspan y="-499.20637" x="-311.59309 -302.13966 -298.79124 -290.55879 -282.32637 -274.6989">MINDY4</tspan></text>
<text xml:space="preserve" transform="matrix(.25965903 -.9392152 .9392043 .25966204 99.79126 552.4427)" font-size="10.999966" font-family="Helvetica"><tspan y="302.3499" x="167.4935">U</tspan><tspan y="302.34996" x="175.48609 182.87366">SP</tspan><tspan y="302.3499" x="190.26123 196.42783">17</tspan><tspan y="302.34996" x="202.59442 208.76099 214.92758">L24</tspan></text>
<text xml:space="preserve" transform="matrix(.9432046 -.24473225 .2447294 .94321557 99.79126 552.4427)" font-size="11.00002" font-family="Helvetica"><tspan y="-203.98763" x="656.5035">C</tspan><tspan y="-203.98761" x="664.46206">O</tspan><tspan y="-203.98763" x="673.0365">P</tspan><tspan y="-203.98761" x="680.39 687.7435">S6</tspan></text>
<text xml:space="preserve" transform="matrix(.7052309 -.6724488 .672441 .70523908 99.79126 552.4427)" font-size="10.999975" font-family="Helvetica"><tspan y="48.130647" x="699.0242 706.30618">BR</tspan><tspan y="48.130678" x="714.1931 722.0802 729.96719">CC3</tspan></text>
<text xml:space="preserve" transform="matrix(.74645909 .6263668 -.6263595 .74646779 99.79126 552.4427)" font-size="10.99998" font-family="Helvetica"><tspan y="-495.08558" x="291.98603 300.1865">US</tspan><tspan y="-495.08564" x="307.782 315.3775 321.75199">P53</tspan></text>
<text xml:space="preserve" transform="matrix(.6144306 .7563173 -.7563085 .6144377 99.79126 552.4427)" font-size="11.000011" font-family="Helvetica"><tspan y="-505.0031" x="195.72182">U</tspan><tspan y="-505.00309" x="203.50984">S</tspan><tspan y="-505.00306" x="210.69284">P</tspan><tspan y="-505.00309" x="217.87583">1</tspan><tspan y="-505.00306" x="223.83786">0</tspan></text>
<text xml:space="preserve" transform="matrix(.97394636 .030919133 -.030918774 .97395768 99.79126 552.4427)" font-size="11.000039" font-family="Helvetica"><tspan y="-326.45066" x="161.24297 169.06949">US</tspan><tspan y="-326.45069" x="176.29103 183.51256 189.51308">P14</tspan></text>
<text xml:space="preserve" transform="matrix(.9432046 .24473225 -.2447294 .94321557 99.79126 552.4427)" font-size="11.00002" font-family="Helvetica"><tspan y="-403.6308" x="496.7707 503.64897 510.52726 517.4056">BAP1</tspan></text>
<text xml:space="preserve" transform="matrix(.34776566 .9102778 -.91026726 .3477697 99.79126 552.4427)" font-size="11.000037" font-family="Helvetica"><tspan y="-480.76933" x="36.708559 44.80789 52.302217">USP</tspan><tspan y="-480.76936" x="59.796548">8</tspan></text>
<text xml:space="preserve" transform="matrix(.16921056 .959644 -.9596329 .16921252 99.79126 552.4427)" font-size="11.000028" font-family="Helvetica"><tspan y="-442.63453" x="-52.23024 -44.51371 -37.40219 -30.290665">USP2</tspan><tspan y="-442.63456" x="-24.400147">1</tspan></text>
<text xml:space="preserve" transform="matrix(.59012958 .77542796 -.77541896 .5901364 99.79126 552.4427)" font-size="10.999986" font-family="Helvetica"><tspan y="-504.8711" x="-239.27364">U</tspan><tspan y="-504.87107" x="-231.20732 -223.74605 -216.28475 -210.04444">SP37</tspan></text>
<text xml:space="preserve" transform="matrix(.046363594 -.97334477 .9733334 .046364134 99.79126 552.4427)" font-size="11.000028" font-family="Helvetica"><tspan y="385.8725" x="528.46829">O</tspan><tspan y="385.87254" x="537.31558 544.32589 552.5572">TUD</tspan><tspan y="385.8725" x="560.7885">5</tspan></text>
<text xml:space="preserve" transform="matrix(.85151 .47377575 -.47377024 .8515199 99.79126 552.4427)" font-size="11.000024" font-family="Helvetica"><tspan y="-467.13215" x="384.62153 392.56028">CY</tspan><tspan y="-467.13218" x="399.894 406.00675">LD</tspan></text>
<text xml:space="preserve" transform="matrix(.78468409 -.57775959 .5777528 .7846932 99.79126 552.4427)" font-size="11.000011" font-family="Helvetica"><tspan y="-16.417115" x="700.5283 707.82357">PS</tspan><tspan y="-16.417084" x="715.1188 724.24 732.14028">MD1</tspan><tspan y="-16.417054" x="738.2144">4</tspan></text>
<text xml:space="preserve" transform="matrix(.28933049 .9305028 -.9304919 .28933386 99.79126 552.4427)" font-size="10.999975" font-family="Helvetica"><tspan y="-469.95179" x="6.271202">U</tspan><tspan y="-469.9518" x="14.0778889 21.27958 28.48127 34.461954">SP19</tspan></text>
<text xml:space="preserve" transform="matrix(.93496587 -.27453233 .27452914 .93497678 99.79126 552.4427)" font-size="10.999961" font-family="Helvetica"><tspan y="-189.1448" x="243.02196 251.29172 258.95649">USP</tspan><tspan y="-189.14482" x="266.62129">3</tspan><tspan y="-189.1448" x="273.06504">4</tspan></text>
<text xml:space="preserve" transform="matrix(.46019898 .8589304 -.85892048 .46020434 99.79126 552.4427)" font-size="10.999962" font-family="Helvetica"><tspan y="-496.5213" x="99.32797 107.085147 114.23732 121.38949 127.32066">USP15</tspan></text>
<text xml:space="preserve" transform="matrix(.8360488 -.50055536 .50054958 .8360585 99.79126 552.4427)" font-size="10.999983" font-family="Helvetica"><tspan y="-64.67776" x="278.43699 286.26347">US</tspan><tspan y="-64.67775" x="293.48497">P</tspan><tspan y="-64.67774" x="300.70643 306.7069">41</tspan></text>
<text xml:space="preserve" transform="matrix(.9046372 .3621631 -.3621589 .9046477 99.79126 552.4427)" font-size="11.000011" font-family="Helvetica"><tspan y="-438.9412" x="442.71537">U</tspan><tspan y="-438.94117" x="450.54188 458.36833 466.19483 472.1953">CHL1</tspan></text>
<text xml:space="preserve" transform="matrix(.25965903 .9392152 -.9392043 .25966204 99.79126 552.4427)" font-size="10.999966" font-family="Helvetica"><tspan y="-463.82066" x="-438.51054">O</tspan><tspan y="-463.82063" x="-429.82057 -422.96757 -414.8936">TUL</tspan><tspan y="-463.82066" x="-408.64558">I</tspan><tspan y="-463.82063" x="-405.4556 -397.38163">NL</tspan></text>
<text xml:space="preserve" transform="matrix(.68354269 -.69448408 .69447597 .68355068 99.79126 552.4427)" font-size="10.999929" font-family="Helvetica"><tspan y="64.18878" x="277.5197">U</tspan><tspan y="64.1888" x="285.81697 293.50923">SP</tspan><tspan y="64.18879" x="301.20149">4</tspan><tspan y="64.1888" x="307.67274">9</tspan></text>
<text xml:space="preserve" transform="matrix(.46019898 -.8589304 .85892048 .46020434 99.79126 552.4427)" font-size="10.999962" font-family="Helvetica"><tspan y="204.15595" x="659.9297">O</tspan><tspan y="204.15596" x="668.6263 675.48587 683.5664 691.64706">TUD7</tspan><tspan y="204.15595" x="697.9016">A</tspan></text>
<text xml:space="preserve" transform="matrix(.9621972 -.1539627 .15396092 .9622084 99.79126 552.4427)" font-size="11.0000109" font-family="Helvetica"><tspan y="-247.20484" x="222.78673 230.63306">US</tspan><tspan y="-247.20485" x="237.87436 245.11565">P7</tspan></text>
<text xml:space="preserve" transform="matrix(.13867243 -.96453049 .96451929 .13867404 99.79126 552.4427)" font-size="10.999976" font-family="Helvetica"><tspan y="352.15623" x="143.40503 151.7023 159.39459 167.08687">USP4</tspan><tspan y="352.1562" x="173.55815">6</tspan></text>
<text xml:space="preserve" transform="matrix(.950495 -.21468069 .21467819 .95050606 99.79126 552.4427)" font-size="11.000001" font-family="Helvetica"><tspan y="-218.62815" x="230.82743 238.93993 246.44745 253.95496">USP4</tspan><tspan y="-218.62816" x="260.24147">7</tspan></text>
<text xml:space="preserve" transform="matrix(.85151 -.47377575 .47377024 .8515199 99.79126 552.4427)" font-size="11.000024" font-family="Helvetica"><tspan y="-80.64447" x="693.8496">M</tspan><tspan y="-80.6445" x="702.8774 710.0791 717.28079 726.30856">YSM1</tspan></text>
<text xml:space="preserve" transform="matrix(.3764745 .89878436 -.89877387 .37647889 99.79126 552.4427)" font-size="10.999977" font-family="Helvetica"><tspan y="-485.46089" x="-374.67454 -365.30918 -362.0488">MIN</tspan><tspan y="-485.46086" x="-353.90443">D</tspan><tspan y="-485.46083" x="-345.76008 -338.22065">Y2</tspan></text>
<text xml:space="preserve" transform="matrix(.22973356 .9469798 -.9469688 .22973623 99.79126 552.4427)" font-size="10.999986" font-family="Helvetica"><tspan y="-457.22874" x="-23.41362 -15.44194">US</tspan><tspan y="-457.2287" x="-8.075233">P</tspan><tspan y="-457.22874" x="-.70854189">2</tspan></text>
<text xml:space="preserve" transform="matrix(.78468409 .57775959 -.5777528 .7846932 99.79126 552.4427)" font-size="11.000011" font-family="Helvetica"><tspan y="-487.73188" x="323.43125">P</tspan><tspan y="-487.73185" x="330.92555">A</tspan><tspan y="-487.7318" x="338.4198 346.5191">N2</tspan></text>
<text xml:space="preserve" transform="matrix(.915671 .33328165 -.33327777 .9156816 99.79126 552.4427)" font-size="10.999972" font-family="Helvetica"><tspan y="-430.7644" x="36.79886 45.068635 52.733415">USP</tspan><tspan y="-430.76438" x="60.398195">4</tspan><tspan y="-430.7644" x="66.84198">3</tspan></text>
<text xml:space="preserve" transform="matrix(.13867243 .96453049 -.96451929 .13867404 99.79126 552.4427)" font-size="10.999976" font-family="Helvetica"><tspan y="-434.66664" x="-500.12269">O</tspan><tspan y="-434.6666" x="-491.55039 -484.81513">TU</tspan><tspan y="-434.66664" x="-476.85884">D</tspan><tspan y="-434.6666" x="-468.90254 -462.77229 -455.42094">4P1</tspan></text>
<text xml:space="preserve" transform="matrix(.40480054 -.88638719 .8863769 .40480525 99.79126 552.4427)" font-size="11.000003" font-family="Helvetica"><tspan y="233.43025" x="646.29769 655.0647">OT</tspan><tspan y="233.43027" x="661.9947 670.1456 677.69168">UB2</tspan></text>
<text xml:space="preserve" transform="matrix(.16921056 -.959644 .9596329 .16921252 99.79126 552.4427)" font-size="11.000028" font-family="Helvetica"><tspan y="340.19508" x="574.1069">O</tspan><tspan y="340.19505" x="582.9509">T</tspan><tspan y="340.19508" x="589.95797 598.186 606.414 612.81607">UD6A</tspan></text>
<text xml:space="preserve" transform="matrix(.9724754 -.06179932 .061798604 .97248676 99.79126 552.4427)" font-size="11.000033" font-family="Helvetica"><tspan y="-288.15388" x="608.74008 615.99789 618.9767 625.6185 631.6554">EIF3H</tspan></text>
<text xml:space="preserve" transform="matrix(.86611369 .44651897 -.44651378 .86612376 99.79126 552.4427)" font-size="11.000062" font-family="Helvetica"><tspan y="-460.77735" x="-13.36673 -5.273987">US</tspan><tspan y="-460.77738" x="2.2137604">P</tspan><tspan y="-460.77735" x="9.701492">6</tspan></text>
<text xml:space="preserve" transform="matrix(.0772245 -.97138348 .9713722 .0772254 99.79126 552.4427)" font-size="10.999948" font-family="Helvetica"><tspan y="375.00538" x="122.574848 130.2913">US</tspan><tspan y="375.0054" x="137.40277 144.51422 150.40471">P12</tspan></text>
<text xml:space="preserve" transform="matrix(.87984749 -.41880773 .41880287 .8798577 99.79126 552.4427)" font-size="11.000011" font-family="Helvetica"><tspan y="-112.31287" x="687.4747">S</tspan><tspan y="-112.3129" x="694.80947 701.52828 708.8631">TAM</tspan><tspan y="-112.31293" x="718.0238 725.3587">BP</tspan></text>
<text xml:space="preserve" transform="matrix(.9621972 .1539627 -.15396092 .9622084 99.79126 552.4427)" font-size="11.0000109" font-family="Helvetica"><tspan y="-372.80778" x="116.29724">U</tspan><tspan y="-372.80775" x="124.10394">S</tspan><tspan y="-372.80778" x="131.30567">P</tspan><tspan y="-372.80775" x="138.50739 144.48807">16</tspan></text>
<text xml:space="preserve" transform="matrix(.34776566 -.9102778 .91026726 .3477697 99.79126 552.4427)" font-size="11.000037" font-family="Helvetica"><tspan y="261.7926" x="630.8332">O</tspan><tspan y="261.79258" x="639.2207">T</tspan><tspan y="261.7926" x="645.77127 653.5427">UB</tspan><tspan y="261.79255" x="660.7093">1</tspan></text>
<text xml:space="preserve" transform="matrix(.565229 -.793762 .7937528 .5652356 99.79126 552.4427)" font-size="11.000056" font-family="Helvetica"><tspan y="143.29688" x="681.50857">T</tspan><tspan y="143.2969" x="688.3032">N</tspan><tspan y="143.29694" x="696.31906 703.1138 710.52456 713.65628 721.06698">FAIP3</tspan></text>
<text xml:space="preserve" transform="matrix(.432719 .8730976 -.87308749 .43272404 99.79126 552.4427)" font-size="10.99998" font-family="Helvetica"><tspan y="-493.33354" x="-341.34809">M</tspan><tspan y="-493.33357" x="-332.2863">I</tspan><tspan y="-493.3335" x="-329.32948 -321.4887">ND</tspan><tspan y="-493.33357" x="-313.64793 -306.41215">Y1</tspan></text>
<text xml:space="preserve" transform="matrix(.63811996 .73643949 -.7364309 .6381274 99.79126 552.4427)" font-size="10.999998" font-family="Helvetica"><tspan y="-504.62327" x="-207.98194">U</tspan><tspan y="-504.6233" x="-199.79463">S</tspan><tspan y="-504.62327" x="-192.21234 -184.63005">P2</tspan><tspan y="-504.6233" x="-178.26873">9</tspan></text>
<text xml:space="preserve" transform="matrix(.19957479 -.9537916 .95378056 .19957711 99.79126 552.4427)" font-size="10.999981" font-family="Helvetica"><tspan y="327.89915" x="154.7373">U</tspan><tspan y="327.8991" x="162.577">S</tspan><tspan y="327.89915" x="169.81168 177.04637 183.06006 189.07375">P17L</tspan><tspan y="327.8991" x="195.08744">2</tspan></text>
<text xml:space="preserve" transform="matrix(.6611658 -.71582058 .71581229 .66117349 99.79126 552.4427)" font-size="10.999991" font-family="Helvetica"><tspan y="80.19711" x="695.19619 702.17459 709.75796 716.7363 719.43569 726.41409">VCPIP1</tspan></text>
<text xml:space="preserve" transform="matrix(.89269039 .39068506 -.39068053 .89270076 99.79126 552.4427)" font-size="11.000014" font-family="Helvetica"><tspan y="-446.67765" x="8.693054 16.852875 24.4077">USP</tspan><tspan y="-446.6776" x="31.962525">3</tspan><tspan y="-446.67765" x="38.296327">2</tspan></text>
<text xml:space="preserve" transform="matrix(.87984749 .41880773 -.41880287 .8798577 99.79126 552.4427)" font-size="11.000011" font-family="Helvetica"><tspan y="-453.95716" x="414.11225 422.38203 430.6518 438.92164 445.3654">UCHL3</tspan></text>
<text xml:space="preserve" transform="matrix(.9724754 .06179932 -.061798604 .97248676 99.79126 552.4427)" font-size="11.000033" font-family="Helvetica"><tspan y="-338.5695" x="568.40219">A</tspan><tspan y="-338.56953" x="576.0582">T</tspan><tspan y="-338.5695" x="583.09829">X</tspan><tspan y="-338.56953" x="590.7543 599.01528 605.4503">N3L</tspan></text>
<text xml:space="preserve" transform="matrix(.93496587 .27453233 -.27452914 .93497678 99.79126 552.4427)" font-size="10.999961" font-family="Helvetica"><tspan y="-413.09388" x="65.84585">U</tspan><tspan y="-413.0939" x="73.62502">S</tspan><tspan y="-413.09388" x="80.79919">P</tspan><tspan y="-413.0939" x="87.973369 93.92655">31</tspan></text>
<text xml:space="preserve" transform="matrix(.95682796 .18441415 -.184412 .9568391 99.79126 552.4427)" font-size="11.000011" font-family="Helvetica"><tspan y="-383.47026" x="522.01156 527.6579 536.3621 543.8455">JOSD</tspan><tspan y="-383.4702" x="551.9338">2</tspan></text>
<text xml:space="preserve" transform="matrix(.95682796 -.18441415 .184412 .9568391 99.79126 552.4427)" font-size="11.000011" font-family="Helvetica"><tspan y="-233.0426" x="642.37149">E</tspan><tspan y="-233.04264" x="649.46658">I</tspan><tspan y="-233.0426" x="652.28256">F</tspan><tspan y="-233.04262" x="658.76156">3</tspan><tspan y="-233.04264" x="664.6356">F</tspan></text>
<text xml:space="preserve" transform="matrix(.68354269 .69448408 -.69447597 .68355068 99.79126 552.4427)" font-size="10.999929" font-family="Helvetica"><tspan y="-502.33595" x="-175.76136 -167.5741 -159.99184 -152.40959 -146.04831">USP26</tspan></text>
<text xml:space="preserve" transform="matrix(.565229 .793762 -.7937528 .5652356 99.79126 552.4427)" font-size="11.000056" font-family="Helvetica"><tspan y="-504.2165" x="163.42777 171.67783">US</tspan><tspan y="-504.21653" x="179.32288 186.9679 193.39197">P39</tspan></text>
<text xml:space="preserve" transform="matrix(.28933049 -.9305028 .9304919 .28933386 99.79126 552.4427)" font-size="10.999975" font-family="Helvetica"><tspan y="289.1094" x="613.59439 620.5496">YO</tspan><tspan y="289.10945" x="628.7259">D</tspan><tspan y="289.10939" x="636.2862">1</tspan></text>
<text xml:space="preserve" transform="matrix(.10800641 -.968444 .9684328 .10800766 99.79126 552.4427)" font-size="11.000019" font-family="Helvetica"><tspan y="363.7556" x="552.02 560.8893">OT</tspan><tspan y="363.75559" x="567.92166 576.1749">UD</tspan><tspan y="363.7556" x="584.4282">3</tspan></text>
<text xml:space="preserve" transform="matrix(.63811996 -.73643949 .7364309 .6381274 99.79126 552.4427)" font-size="10.999998" font-family="Helvetica"><tspan y="96.12941" x="272.68449">U</tspan><tspan y="96.129428" x="281.0005">S</tspan><tspan y="96.12942" x="288.7115 296.4225">P4</tspan><tspan y="96.12941" x="302.91249">4</tspan></text>
<text xml:space="preserve" transform="matrix(.9257853 -.30405776 .3040542 .92579606 99.79126 552.4427)" font-size="10.999977" font-family="Helvetica"><tspan y="-174.11019" x="668.75747">P</tspan><tspan y="-174.1102" x="675.8491">R</tspan><tspan y="-174.11019" x="683.5458">P</tspan><tspan y="-174.1102" x="690.63748">F</tspan><tspan y="-174.11019" x="697.1131">8</tspan></text>
<text xml:space="preserve" transform="matrix(.015464378 .97432568 -.97431436 .015464557 99.79126 552.4427)" font-size="10.999955" font-family="Helvetica"><tspan y="-398.45323" x="-539.57449">O</tspan><tspan y="-398.45326" x="-531.1485">T</tspan><tspan y="-398.45323" x="-524.5595 -516.7496">UD</tspan><tspan y="-398.4532" x="-508.9396">1</tspan></text>
<text xml:space="preserve" transform="matrix(.96659776 -.12335605 .123354617 .966609 99.79126 552.4427)" font-size="10.999944" font-family="Helvetica"><tspan y="-261.1298" x="626.4362">P</tspan><tspan y="-261.12977" x="633.7644 641.0926 650.24679 658.17996">SMD7</tspan></text>
<text xml:space="preserve" transform="matrix(.81974789 -.5268275 .52682146 .8197574 99.79126 552.4427)" font-size="10.999963" font-family="Helvetica"><tspan y="-48.642274" x="698.20639">M</tspan><tspan y="-48.642244" x="707.49038 714.9483 723.01138">PND</tspan></text>
<text xml:space="preserve" transform="matrix(.6611658 .71582058 -.71581229 .66117349 99.79126 552.4427)" font-size="10.999991" font-family="Helvetica"><tspan y="-503.7335" x="228.0025 235.46817">US</tspan><tspan y="-503.73347" x="242.32889 249.18955">P1</tspan></text>
<text xml:space="preserve" transform="matrix(.5137492 -.82801279 .8280031 .51375517 99.79126 552.4427)" font-size="11.000069" font-family="Helvetica"><tspan y="174.06999" x="671.6815">O</tspan><tspan y="174.07" x="680.34078 687.16299 695.2062 703.24948 709.4667">TUD7B</tspan></text>
<text xml:space="preserve" transform="matrix(.40480054 .88638719 -.8863769 .40480525 99.79126 552.4427)" font-size="11.000003" font-family="Helvetica"><tspan y="-489.63603" x="67.76883">U</tspan><tspan y="-489.636" x="75.88684">S</tspan><tspan y="-489.63603" x="83.39986 90.912868">P4</tspan></text>
</g>
<clipPath id="cp3">
<path transform="matrix(1,0,0,-1,0,540)" d="M 0 0 L 960 0 L 960 540 L 0 540 Z "/>
</clipPath>
<g clip-path="url(#cp3)">
<text xml:space="preserve" transform="matrix(.24 0 -0 .24 625.2582 1058.64)" font-size="50" font-family="Helvetica"><tspan y="-2250" x="0 41.665 66.665">MJD</tspan></text>
<text xml:space="preserve" transform="matrix(.24 0 -0 .24 686.8133 1058.64)" font-size="50" font-family="Helvetica"><tspan y="-2250" x="0 35.935 71.87">UCH</tspan></text>
<text xml:space="preserve" transform="matrix(.24 0 -0 .24 286.9419 1058.64)" font-size="50" font-family="Helvetica"><tspan y="-2250" x="0 35.935 69.270008">USP</tspan></text>
<text xml:space="preserve" transform="matrix(.24 0 -0 .24 348.2148 1058.64)" font-size="50" font-family="Helvetica"><tspan y="-2250" x="0 41.665 55.730005 91.645008 127.56001">MINDY</tspan></text>
<text xml:space="preserve" transform="matrix(.24 0 -0 .24 491.5442 1058.64)" font-size="50" font-family="Helvetica"><tspan y="-2250" x="0 39.065004 69.78">OTU</tspan></text>
<text xml:space="preserve" transform="matrix(.24 0 -0 .24 554.2365 1058.64)" font-size="50" font-family="Helvetica"><tspan y="-2250" x="0 25 58.335004 100">JAMM</tspan></text>
<text xml:space="preserve" transform="matrix(.24 0 -0 .24 423.6244 1058.64)" font-size="50" font-family="Helvetica"><tspan y="-2250" x="0 30.73 66.66 99.990009">ZUP1</tspan></text>
<path transform="matrix(1,0,0,-1,0,540)" d="M 268.5843 19.6228 L 279.38429 19.6228 L 279.38429 30.422802 L 268.5843 30.422802 Z " fill="#5dc84d"/>
<path transform="matrix(.00007874016,0,0,.00007874016,268.5843,509.5772)" stroke-width="12700" stroke-linecap="butt" stroke-miterlimit="8" stroke-linejoin="miter" fill="none" stroke="#000000" d="M 0 0 L 137160 0 L 137160 137160 L 0 137160 Z "/>
<path transform="matrix(1,0,0,-1,0,540)" d="M 330.5935 19.6228 L 341.3935 19.6228 L 341.3935 30.422802 L 330.5935 30.422802 Z " fill="#f8cd46"/>
<path transform="matrix(.00007874016,0,0,.00007874016,330.5935,509.5772)" stroke-width="12700" stroke-linecap="butt" stroke-miterlimit="8" stroke-linejoin="miter" fill="none" stroke="#000000" d="M 0 0 L 137160 0 L 137160 137160 L 0 137160 Z "/>
<path transform="matrix(1,0,0,-1,0,540)" d="M 406.0031 19.6228 L 416.8031 19.6228 L 416.8031 30.422802 L 406.0031 30.422802 Z " fill="#8a29f5"/>
<path transform="matrix(.00007874016,0,0,.00007874016,406.0031,509.5772)" stroke-width="12700" stroke-linecap="butt" stroke-miterlimit="8" stroke-linejoin="miter" fill="none" stroke="#000000" d="M 0 0 L 137160 0 L 137160 137160 L 0 137160 Z "/>
<path transform="matrix(1,0,0,-1,0,540)" d="M 473.2775 19.6228 L 484.07749 19.6228 L 484.07749 30.422802 L 473.2775 30.422802 Z " fill="#ee702d"/>
<path transform="matrix(.00007874016,0,0,.00007874016,473.2775,509.5772)" stroke-width="12700" stroke-linecap="butt" stroke-miterlimit="8" stroke-linejoin="miter" fill="none" stroke="#000000" d="M 0 0 L 137160 0 L 137160 137160 L 0 137160 Z "/>
<path transform="matrix(1,0,0,-1,0,540)" d="M 536.2365 19.623 L 547.0365 19.623 L 547.0365 30.423 L 536.2365 30.423 Z " fill="#65c9ca"/>
<path transform="matrix(.00007874016,0,0,.00007874016,536.2365,509.577)" stroke-width="12700" stroke-linecap="butt" stroke-miterlimit="8" stroke-linejoin="miter" fill="none" stroke="#000000" d="M 0 0 L 137160 0 L 137160 137160 L 0 137160 Z "/>
<path transform="matrix(1,0,0,-1,0,540)" d="M 607.6369 19.6229 L 618.4369 19.6229 L 618.4369 30.422902 L 607.6369 30.422902 Z " fill="#bb2866"/>
<path transform="matrix(.00007874016,0,0,.00007874016,607.6369,509.5771)" stroke-width="12700" stroke-linecap="butt" stroke-miterlimit="8" stroke-linejoin="miter" fill="none" stroke="#000000" d="M 0 0 L 137160 0 L 137160 137160 L 0 137160 Z "/>
<path transform="matrix(1,0,0,-1,0,540)" d="M 668.8133 19.6228 L 679.6133 19.6228 L 679.6133 30.422802 L 668.8133 30.422802 Z " fill="#003cf5"/>
<path transform="matrix(.00007874016,0,0,.00007874016,668.8133,509.5772)" stroke-width="12700" stroke-linecap="butt" stroke-miterlimit="8" stroke-linejoin="miter" fill="none" stroke="#000000" d="M 0 0 L 137160 0 L 137160 137160 L 0 137160 Z "/>
</g>
</g>
</svg>
