<?xml version="1.0" encoding="utf-8" standalone="no"?>
<!DOCTYPE svg PUBLIC "-//W3C//DTD SVG 1.1//EN"
  "http://www.w3.org/Graphics/SVG/1.1/DTD/svg11.dtd">
<svg height="345.6pt" version="1.1" viewBox="0 0 460.8 345.6" width="460.8pt" xmlns="http://www.w3.org/2000/svg" xmlns:xlink="http://www.w3.org/1999/xlink">
 <metadata>
  <rdf:RDF xmlns:cc="http://creativecommons.org/ns#" xmlns:dc="http://purl.org/dc/elements/1.1/" xmlns:rdf="http://www.w3.org/1999/02/22-rdf-syntax-ns#">
   <cc:Work>
    <dc:type rdf:resource="http://purl.org/dc/dcmitype/StillImage"/>
    <dc:date>2021-06-15T10:28:42.923236</dc:date>
    <dc:format>image/svg+xml</dc:format>
    <dc:creator>
     <cc:Agent>
      <dc:title>Matplotlib v3.4.2, https://matplotlib.org/</dc:title>
     </cc:Agent>
    </dc:creator>
   </cc:Work>
  </rdf:RDF>
 </metadata>
 <defs>
  <style type="text/css">*{stroke-linecap:butt;stroke-linejoin:round;}</style>
 </defs>
 <g id="figure_1">
  <g id="patch_1">
   <path d="M 0 345.6 
L 460.8 345.6 
L 460.8 0 
L 0 0 
z
" style="fill:#ffffff;"/>
  </g>
  <g id="axes_1">
   <g id="patch_2">
    <path clip-path="url(#pebb4a7c9ad)" d="M 94.943698 182.034101 
C 94.635172 178.305543 94.480712 174.565837 94.480712 170.824537 
C 94.480712 167.083236 94.635172 163.34353 94.943698 159.614973 
C 94.619131 163.34268 94.456618 167.082726 94.456618 170.824537 
C 94.456618 174.566347 94.619131 178.306393 94.943698 182.034101 
" style="fill:#ff0000;opacity:0.4;"/>
   </g>
   <g id="patch_3">
    <path clip-path="url(#pebb4a7c9ad)" d="M 94.943698 159.614973 
C 96.374782 143.178704 100.940252 127.167522 108.392936 112.448268 
C 115.84562 97.729014 126.04855 84.572202 138.449342 73.690139 
C 150.850134 62.808076 165.220884 54.400755 180.783561 48.923347 
C 196.346239 43.445938 212.81483 40.999107 229.297729 41.715324 
C 245.780628 42.431541 261.974909 46.297644 277.003817 53.104322 
C 292.032724 59.911 305.620054 69.533159 317.030191 81.449858 
C 328.440329 93.366557 337.463575 107.358787 343.611414 122.669012 
C 349.759253 137.979238 352.918698 154.326084 352.918698 170.824537 
C 352.918698 187.322989 349.759253 203.669835 343.611414 218.980061 
C 337.463575 234.290287 328.440329 248.282517 317.030191 260.199216 
C 305.620054 272.115914 292.032724 281.738073 277.003817 288.544751 
C 261.974909 295.35143 245.780628 299.217532 229.297729 299.933749 
C 212.81483 300.649967 196.346239 298.203135 180.783561 292.725727 
C 165.220884 287.248318 150.850134 278.840997 138.449342 267.958934 
C 126.04855 257.076871 115.84562 243.92006 108.392936 229.200806 
C 100.940252 214.481552 96.374782 198.470369 94.943698 182.034101 
C 96.376804 199.353288 101.118007 216.238049 108.909903 231.771702 
C 116.7018 247.305355 127.400783 261.20161 140.426001 272.706033 
C 153.451218 284.210456 168.56261 293.111016 184.939773 298.924498 
C 201.316936 304.73798 218.658033 307.35724 236.021607 306.640076 
C 253.385181 305.922912 270.451217 301.882542 286.29319 294.73832 
C 302.135164 287.594097 316.461103 277.477693 328.493245 264.938332 
C 340.525387 252.39897 350.041976 237.667755 356.526352 221.544452 
C 363.010728 205.421149 366.343382 188.202915 366.343382 170.824537 
C 366.343382 153.446158 363.010728 136.227925 356.526352 120.104621 
C 350.041976 103.981318 340.525387 89.250104 328.493245 76.710742 
C 316.461103 64.17138 302.135164 54.054976 286.29319 46.910754 
C 270.451217 39.766532 253.385181 35.726162 236.021607 35.008998 
C 218.658033 34.291834 201.316936 36.911093 184.939773 42.724575 
C 168.56261 48.538057 153.451218 57.438617 140.426001 68.94304 
C 127.400783 80.447463 116.7018 94.343718 108.909903 109.877372 
C 101.118007 125.411025 96.376804 142.295786 94.943698 159.614973 
" style="fill:#008000;opacity:0.4;"/>
   </g>
   <g id="patch_4">
    <path clip-path="url(#pebb4a7c9ad)" d="M 94.943698 182.034101 
C 96.374782 198.470369 100.940252 214.481552 108.392936 229.200806 
C 115.84562 243.92006 126.04855 257.076871 138.449342 267.958934 
C 150.850134 278.840997 165.220884 287.248318 180.783561 292.725727 
C 196.346239 298.203135 212.81483 300.649967 229.297729 299.933749 
C 245.780628 299.217532 261.974909 295.35143 277.003817 288.544751 
C 292.032724 281.738073 305.620054 272.115914 317.030191 260.199216 
C 328.440329 248.282517 337.463575 234.290287 343.611414 218.980061 
C 349.759253 203.669835 352.918698 187.322989 352.918698 170.824537 
C 352.918698 154.326084 349.759253 137.979238 343.611414 122.669012 
C 337.463575 107.358787 328.440329 93.366557 317.030191 81.449858 
C 305.620054 69.533159 292.032724 59.911 277.003817 53.104322 
C 261.974909 46.297644 245.780628 42.431541 229.297729 41.715324 
C 212.81483 40.999107 196.346239 43.445938 180.783561 48.923347 
C 165.220884 54.400755 150.850134 62.808076 138.449342 73.690139 
C 126.04855 84.572202 115.84562 97.729014 108.392936 112.448268 
C 100.940252 127.167522 96.374782 143.178704 94.943698 159.614973 
C 94.635172 163.34353 94.480712 167.083236 94.480712 170.824537 
C 94.480712 174.565837 94.635172 178.305543 94.943698 182.034101 
" style="fill:#b25900;opacity:0.4;"/>
   </g>
   <g id="text_1">
    <!-- 0 -->
    <g transform="translate(91.287415 173.583912)scale(0.1 -0.1)">
     <defs>
      <path d="M 2034 4250 
Q 1547 4250 1301 3770 
Q 1056 3291 1056 2328 
Q 1056 1369 1301 889 
Q 1547 409 2034 409 
Q 2525 409 2770 889 
Q 3016 1369 3016 2328 
Q 3016 3291 2770 3770 
Q 2525 4250 2034 4250 
z
M 2034 4750 
Q 2819 4750 3233 4129 
Q 3647 3509 3647 2328 
Q 3647 1150 3233 529 
Q 2819 -91 2034 -91 
Q 1250 -91 836 529 
Q 422 1150 422 2328 
Q 422 3509 836 4129 
Q 1250 4750 2034 4750 
z
" id="DejaVuSans-30" transform="scale(0.015625)"/>
     </defs>
     <use xlink:href="#DejaVuSans-30"/>
    </g>
   </g>
   <g id="text_2">
    <!-- 10 -->
    <g transform="translate(353.26854 173.583912)scale(0.1 -0.1)">
     <defs>
      <path d="M 794 531 
L 1825 531 
L 1825 4091 
L 703 3866 
L 703 4441 
L 1819 4666 
L 2450 4666 
L 2450 531 
L 3481 531 
L 3481 0 
L 794 0 
L 794 531 
z
" id="DejaVuSans-31" transform="scale(0.015625)"/>
     </defs>
     <use xlink:href="#DejaVuSans-31"/>
     <use x="63.623047" xlink:href="#DejaVuSans-30"/>
    </g>
   </g>
   <g id="text_3">
    <!-- 94 -->
    <g transform="translate(217.337205 173.583912)scale(0.1 -0.1)">
     <defs>
      <path d="M 703 97 
L 703 672 
Q 941 559 1184 500 
Q 1428 441 1663 441 
Q 2288 441 2617 861 
Q 2947 1281 2994 2138 
Q 2813 1869 2534 1725 
Q 2256 1581 1919 1581 
Q 1219 1581 811 2004 
Q 403 2428 403 3163 
Q 403 3881 828 4315 
Q 1253 4750 1959 4750 
Q 2769 4750 3195 4129 
Q 3622 3509 3622 2328 
Q 3622 1225 3098 567 
Q 2575 -91 1691 -91 
Q 1453 -91 1209 -44 
Q 966 3 703 97 
z
M 1959 2075 
Q 2384 2075 2632 2365 
Q 2881 2656 2881 3163 
Q 2881 3666 2632 3958 
Q 2384 4250 1959 4250 
Q 1534 4250 1286 3958 
Q 1038 3666 1038 3163 
Q 1038 2656 1286 2365 
Q 1534 2075 1959 2075 
z
" id="DejaVuSans-39" transform="scale(0.015625)"/>
      <path d="M 2419 4116 
L 825 1625 
L 2419 1625 
L 2419 4116 
z
M 2253 4666 
L 3047 4666 
L 3047 1625 
L 3713 1625 
L 3713 1100 
L 3047 1100 
L 3047 0 
L 2419 0 
L 2419 1100 
L 313 1100 
L 313 1709 
L 2253 4666 
z
" id="DejaVuSans-34" transform="scale(0.015625)"/>
     </defs>
     <use xlink:href="#DejaVuSans-39"/>
     <use x="63.623047" xlink:href="#DejaVuSans-34"/>
    </g>
   </g>
   <g id="text_4">
    <!-- DUB Portal -->
    <g transform="translate(159.150158 322.43182)scale(0.12 -0.12)">
     <defs>
      <path d="M 1259 4147 
L 1259 519 
L 2022 519 
Q 2988 519 3436 956 
Q 3884 1394 3884 2338 
Q 3884 3275 3436 3711 
Q 2988 4147 2022 4147 
L 1259 4147 
z
M 628 4666 
L 1925 4666 
Q 3281 4666 3915 4102 
Q 4550 3538 4550 2338 
Q 4550 1131 3912 565 
Q 3275 0 1925 0 
L 628 0 
L 628 4666 
z
" id="DejaVuSans-44" transform="scale(0.015625)"/>
      <path d="M 556 4666 
L 1191 4666 
L 1191 1831 
Q 1191 1081 1462 751 
Q 1734 422 2344 422 
Q 2950 422 3222 751 
Q 3494 1081 3494 1831 
L 3494 4666 
L 4128 4666 
L 4128 1753 
Q 4128 841 3676 375 
Q 3225 -91 2344 -91 
Q 1459 -91 1007 375 
Q 556 841 556 1753 
L 556 4666 
z
" id="DejaVuSans-55" transform="scale(0.015625)"/>
      <path d="M 1259 2228 
L 1259 519 
L 2272 519 
Q 2781 519 3026 730 
Q 3272 941 3272 1375 
Q 3272 1813 3026 2020 
Q 2781 2228 2272 2228 
L 1259 2228 
z
M 1259 4147 
L 1259 2741 
L 2194 2741 
Q 2656 2741 2882 2914 
Q 3109 3088 3109 3444 
Q 3109 3797 2882 3972 
Q 2656 4147 2194 4147 
L 1259 4147 
z
M 628 4666 
L 2241 4666 
Q 2963 4666 3353 4366 
Q 3744 4066 3744 3513 
Q 3744 3084 3544 2831 
Q 3344 2578 2956 2516 
Q 3422 2416 3680 2098 
Q 3938 1781 3938 1306 
Q 3938 681 3513 340 
Q 3088 0 2303 0 
L 628 0 
L 628 4666 
z
" id="DejaVuSans-42" transform="scale(0.015625)"/>
      <path id="DejaVuSans-20" transform="scale(0.015625)"/>
      <path d="M 1259 4147 
L 1259 2394 
L 2053 2394 
Q 2494 2394 2734 2622 
Q 2975 2850 2975 3272 
Q 2975 3691 2734 3919 
Q 2494 4147 2053 4147 
L 1259 4147 
z
M 628 4666 
L 2053 4666 
Q 2838 4666 3239 4311 
Q 3641 3956 3641 3272 
Q 3641 2581 3239 2228 
Q 2838 1875 2053 1875 
L 1259 1875 
L 1259 0 
L 628 0 
L 628 4666 
z
" id="DejaVuSans-50" transform="scale(0.015625)"/>
      <path d="M 1959 3097 
Q 1497 3097 1228 2736 
Q 959 2375 959 1747 
Q 959 1119 1226 758 
Q 1494 397 1959 397 
Q 2419 397 2687 759 
Q 2956 1122 2956 1747 
Q 2956 2369 2687 2733 
Q 2419 3097 1959 3097 
z
M 1959 3584 
Q 2709 3584 3137 3096 
Q 3566 2609 3566 1747 
Q 3566 888 3137 398 
Q 2709 -91 1959 -91 
Q 1206 -91 779 398 
Q 353 888 353 1747 
Q 353 2609 779 3096 
Q 1206 3584 1959 3584 
z
" id="DejaVuSans-6f" transform="scale(0.015625)"/>
      <path d="M 2631 2963 
Q 2534 3019 2420 3045 
Q 2306 3072 2169 3072 
Q 1681 3072 1420 2755 
Q 1159 2438 1159 1844 
L 1159 0 
L 581 0 
L 581 3500 
L 1159 3500 
L 1159 2956 
Q 1341 3275 1631 3429 
Q 1922 3584 2338 3584 
Q 2397 3584 2469 3576 
Q 2541 3569 2628 3553 
L 2631 2963 
z
" id="DejaVuSans-72" transform="scale(0.015625)"/>
      <path d="M 1172 4494 
L 1172 3500 
L 2356 3500 
L 2356 3053 
L 1172 3053 
L 1172 1153 
Q 1172 725 1289 603 
Q 1406 481 1766 481 
L 2356 481 
L 2356 0 
L 1766 0 
Q 1100 0 847 248 
Q 594 497 594 1153 
L 594 3053 
L 172 3053 
L 172 3500 
L 594 3500 
L 594 4494 
L 1172 4494 
z
" id="DejaVuSans-74" transform="scale(0.015625)"/>
      <path d="M 2194 1759 
Q 1497 1759 1228 1600 
Q 959 1441 959 1056 
Q 959 750 1161 570 
Q 1363 391 1709 391 
Q 2188 391 2477 730 
Q 2766 1069 2766 1631 
L 2766 1759 
L 2194 1759 
z
M 3341 1997 
L 3341 0 
L 2766 0 
L 2766 531 
Q 2569 213 2275 61 
Q 1981 -91 1556 -91 
Q 1019 -91 701 211 
Q 384 513 384 1019 
Q 384 1609 779 1909 
Q 1175 2209 1959 2209 
L 2766 2209 
L 2766 2266 
Q 2766 2663 2505 2880 
Q 2244 3097 1772 3097 
Q 1472 3097 1187 3025 
Q 903 2953 641 2809 
L 641 3341 
Q 956 3463 1253 3523 
Q 1550 3584 1831 3584 
Q 2591 3584 2966 3190 
Q 3341 2797 3341 1997 
z
" id="DejaVuSans-61" transform="scale(0.015625)"/>
      <path d="M 603 4863 
L 1178 4863 
L 1178 0 
L 603 0 
L 603 4863 
z
" id="DejaVuSans-6c" transform="scale(0.015625)"/>
     </defs>
     <use xlink:href="#DejaVuSans-44"/>
     <use x="77.001953" xlink:href="#DejaVuSans-55"/>
     <use x="150.195312" xlink:href="#DejaVuSans-42"/>
     <use x="218.798828" xlink:href="#DejaVuSans-20"/>
     <use x="250.585938" xlink:href="#DejaVuSans-50"/>
     <use x="307.263672" xlink:href="#DejaVuSans-6f"/>
     <use x="368.445312" xlink:href="#DejaVuSans-72"/>
     <use x="409.558594" xlink:href="#DejaVuSans-74"/>
     <use x="448.767578" xlink:href="#DejaVuSans-61"/>
     <use x="510.046875" xlink:href="#DejaVuSans-6c"/>
    </g>
   </g>
   <g id="text_5">
    <!-- FamPlex -->
    <g transform="translate(230.412047 329.132115)scale(0.12 -0.12)">
     <defs>
      <path d="M 628 4666 
L 3309 4666 
L 3309 4134 
L 1259 4134 
L 1259 2759 
L 3109 2759 
L 3109 2228 
L 1259 2228 
L 1259 0 
L 628 0 
L 628 4666 
z
" id="DejaVuSans-46" transform="scale(0.015625)"/>
      <path d="M 3328 2828 
Q 3544 3216 3844 3400 
Q 4144 3584 4550 3584 
Q 5097 3584 5394 3201 
Q 5691 2819 5691 2113 
L 5691 0 
L 5113 0 
L 5113 2094 
Q 5113 2597 4934 2840 
Q 4756 3084 4391 3084 
Q 3944 3084 3684 2787 
Q 3425 2491 3425 1978 
L 3425 0 
L 2847 0 
L 2847 2094 
Q 2847 2600 2669 2842 
Q 2491 3084 2119 3084 
Q 1678 3084 1418 2786 
Q 1159 2488 1159 1978 
L 1159 0 
L 581 0 
L 581 3500 
L 1159 3500 
L 1159 2956 
Q 1356 3278 1631 3431 
Q 1906 3584 2284 3584 
Q 2666 3584 2933 3390 
Q 3200 3197 3328 2828 
z
" id="DejaVuSans-6d" transform="scale(0.015625)"/>
      <path d="M 3597 1894 
L 3597 1613 
L 953 1613 
Q 991 1019 1311 708 
Q 1631 397 2203 397 
Q 2534 397 2845 478 
Q 3156 559 3463 722 
L 3463 178 
Q 3153 47 2828 -22 
Q 2503 -91 2169 -91 
Q 1331 -91 842 396 
Q 353 884 353 1716 
Q 353 2575 817 3079 
Q 1281 3584 2069 3584 
Q 2775 3584 3186 3129 
Q 3597 2675 3597 1894 
z
M 3022 2063 
Q 3016 2534 2758 2815 
Q 2500 3097 2075 3097 
Q 1594 3097 1305 2825 
Q 1016 2553 972 2059 
L 3022 2063 
z
" id="DejaVuSans-65" transform="scale(0.015625)"/>
      <path d="M 3513 3500 
L 2247 1797 
L 3578 0 
L 2900 0 
L 1881 1375 
L 863 0 
L 184 0 
L 1544 1831 
L 300 3500 
L 978 3500 
L 1906 2253 
L 2834 3500 
L 3513 3500 
z
" id="DejaVuSans-78" transform="scale(0.015625)"/>
     </defs>
     <use xlink:href="#DejaVuSans-46"/>
     <use x="48.394531" xlink:href="#DejaVuSans-61"/>
     <use x="109.673828" xlink:href="#DejaVuSans-6d"/>
     <use x="207.085938" xlink:href="#DejaVuSans-50"/>
     <use x="267.388672" xlink:href="#DejaVuSans-6c"/>
     <use x="295.171875" xlink:href="#DejaVuSans-65"/>
     <use x="354.945312" xlink:href="#DejaVuSans-78"/>
    </g>
   </g>
  </g>
 </g>
 <defs>
  <clipPath id="pebb4a7c9ad">
   <rect height="320.049073" width="320.073167" x="70.363417" y="10.8"/>
  </clipPath>
 </defs>
</svg>
