<?xml version="1.0" encoding="utf-8" standalone="no"?>
<!DOCTYPE svg PUBLIC "-//W3C//DTD SVG 1.1//EN"
  "http://www.w3.org/Graphics/SVG/1.1/DTD/svg11.dtd">
<svg xmlns:xlink="http://www.w3.org/1999/xlink" width="460.8pt" height="345.6pt" viewBox="0 0 460.8 345.6" xmlns="http://www.w3.org/2000/svg" version="1.1">
 <metadata>
  <rdf:RDF xmlns:dc="http://purl.org/dc/elements/1.1/" xmlns:cc="http://creativecommons.org/ns#" xmlns:rdf="http://www.w3.org/1999/02/22-rdf-syntax-ns#">
   <cc:Work>
    <dc:type rdf:resource="http://purl.org/dc/dcmitype/StillImage"/>
    <dc:date>2022-12-11T01:00:19.655038</dc:date>
    <dc:format>image/svg+xml</dc:format>
    <dc:creator>
     <cc:Agent>
      <dc:title>Matplotlib v3.6.2, https://matplotlib.org/</dc:title>
     </cc:Agent>
    </dc:creator>
   </cc:Work>
  </rdf:RDF>
 </metadata>
 <defs>
  <style type="text/css">*{stroke-linejoin: round; stroke-linecap: butt}</style>
 </defs>
 <g id="figure_1">
  <g id="patch_1">
   <path d="M 0 345.6 
L 460.8 345.6 
L 460.8 0 
L 0 0 
z
" style="fill: #ffffff"/>
  </g>
  <g id="axes_1">
   <g id="patch_2">
    <path d="M 95.499102 186.864427 
C 94.86067 181.518027 94.540608 176.138401 94.540608 170.754018 
C 94.540608 165.369635 94.86067 159.990009 95.499102 154.64361 
C 94.844659 159.988803 94.516525 165.368911 94.516525 170.754018 
C 94.516525 176.139126 94.844659 181.519234 95.499102 186.864427 
" clip-path="url(#p5baefc0419)" style="fill: #ff0000; opacity: 0.4"/>
   </g>
   <g id="patch_3">
    <path d="M 95.499102 154.64361 
C 97.532167 138.038455 102.69023 121.967232 110.700332 107.280408 
C 118.710433 92.593585 129.428741 79.554884 142.288056 68.854299 
C 155.14737 58.153713 169.916784 49.983385 185.814718 44.775681 
C 201.712653 39.567976 218.453638 37.416405 235.151761 38.434827 
C 251.849884 39.453248 268.205308 43.623375 283.352523 50.724529 
C 298.499737 57.825684 312.166754 67.730354 323.630331 79.914398 
C 335.093907 92.098441 344.148199 106.343077 350.314065 121.894495 
C 356.47993 137.445913 359.646653 154.024867 359.646653 170.754018 
C 359.646653 187.483169 356.47993 204.062123 350.314065 219.613542 
C 344.148199 235.16496 335.093907 249.409595 323.630331 261.593639 
C 312.166754 273.777682 298.499737 283.682353 283.352523 290.783507 
C 268.205308 297.884661 251.849884 302.054788 235.151761 303.07321 
C 218.453638 304.091631 201.712653 301.940061 185.814718 296.732356 
C 169.916784 291.524651 155.14737 283.354324 142.288056 272.653738 
C 129.428741 261.953152 118.710433 248.914451 110.700332 234.227628 
C 102.69023 219.540805 97.532167 203.469581 95.499102 186.864427 
C 97.534185 203.906764 102.780168 220.410177 110.958896 235.499617 
C 119.137625 250.589058 130.101947 263.993035 143.27051 275.00084 
C 156.439072 286.008646 171.574945 294.422225 187.875591 299.795472 
C 204.176236 305.168719 221.348371 307.404957 238.481489 306.385617 
C 255.614608 305.366276 272.400451 301.109696 287.948993 293.841571 
C 303.497536 286.573446 317.529027 276.424544 329.299487 263.932983 
C 341.069947 251.441422 350.3676 236.831952 356.699463 220.879199 
C 363.031325 204.926445 366.283475 187.917433 366.283475 170.754018 
C 366.283475 153.590603 363.031325 136.581591 356.699463 120.628838 
C 350.3676 104.676085 341.069947 90.066614 329.299487 77.575053 
C 317.529027 65.083492 303.497536 54.934591 287.948993 47.666465 
C 272.400451 40.39834 255.614608 36.141761 238.481489 35.12242 
C 221.348371 34.103079 204.176236 36.339317 187.875591 41.712564 
C 171.574945 47.085811 156.439072 55.499391 143.27051 66.507196 
C 130.101947 77.515001 119.137625 90.918979 110.958896 106.008419 
C 102.780168 121.09786 97.534185 137.601273 95.499102 154.64361 
" clip-path="url(#p5baefc0419)" style="fill: #008000; opacity: 0.4"/>
   </g>
   <g id="patch_4">
    <path d="M 95.499102 186.864427 
C 97.532167 203.469581 102.69023 219.540805 110.700332 234.227628 
C 118.710433 248.914451 129.428741 261.953152 142.288056 272.653738 
C 155.14737 283.354324 169.916784 291.524651 185.814718 296.732356 
C 201.712653 301.940061 218.453638 304.091631 235.151761 303.07321 
C 251.849884 302.054788 268.205308 297.884661 283.352523 290.783507 
C 298.499737 283.682353 312.166754 273.777682 323.630331 261.593639 
C 335.093907 249.409595 344.148199 235.16496 350.314065 219.613542 
C 356.47993 204.062123 359.646653 187.483169 359.646653 170.754018 
C 359.646653 154.024867 356.47993 137.445913 350.314065 121.894495 
C 344.148199 106.343077 335.093907 92.098441 323.630331 79.914398 
C 312.166754 67.730354 298.499737 57.825684 283.352523 50.724529 
C 268.205308 43.623375 251.849884 39.453248 235.151761 38.434827 
C 218.453638 37.416405 201.712653 39.567976 185.814718 44.775681 
C 169.916784 49.983385 155.14737 58.153713 142.288056 68.854299 
C 129.428741 79.554884 118.710433 92.593585 110.700332 107.280408 
C 102.69023 121.967232 97.532167 138.038455 95.499102 154.64361 
C 94.86067 159.990009 94.540608 165.369635 94.540608 170.754018 
C 94.540608 176.138401 94.86067 181.518027 95.499102 186.864427 
" clip-path="url(#p5baefc0419)" style="fill: #b25900; opacity: 0.4"/>
   </g>
   <g id="text_1">
    <!-- 0 -->
    <g transform="translate(91.347316 173.513393) scale(0.1 -0.1)">
     <defs>
      <path id="DejaVuSans-30" d="M 2034 4250 
Q 1547 4250 1301 3770 
Q 1056 3291 1056 2328 
Q 1056 1369 1301 889 
Q 1547 409 2034 409 
Q 2525 409 2770 889 
Q 3016 1369 3016 2328 
Q 3016 3291 2770 3770 
Q 2525 4250 2034 4250 
z
M 2034 4750 
Q 2819 4750 3233 4129 
Q 3647 3509 3647 2328 
Q 3647 1150 3233 529 
Q 2819 -91 2034 -91 
Q 1250 -91 836 529 
Q 422 1150 422 2328 
Q 422 3509 836 4129 
Q 1250 4750 2034 4750 
z
" transform="scale(0.015625)"/>
     </defs>
     <use xlink:href="#DejaVuSans-30"/>
    </g>
   </g>
   <g id="text_2">
    <!-- 5 -->
    <g transform="translate(359.783814 173.513393) scale(0.1 -0.1)">
     <defs>
      <path id="DejaVuSans-35" d="M 691 4666 
L 3169 4666 
L 3169 4134 
L 1269 4134 
L 1269 2991 
Q 1406 3038 1543 3061 
Q 1681 3084 1819 3084 
Q 2600 3084 3056 2656 
Q 3513 2228 3513 1497 
Q 3513 744 3044 326 
Q 2575 -91 1722 -91 
Q 1428 -91 1123 -41 
Q 819 9 494 109 
L 494 744 
Q 775 591 1075 516 
Q 1375 441 1709 441 
Q 2250 441 2565 725 
Q 2881 1009 2881 1497 
Q 2881 1984 2565 2268 
Q 2250 2553 1709 2553 
Q 1456 2553 1204 2497 
Q 953 2441 691 2322 
L 691 4666 
z
" transform="scale(0.015625)"/>
     </defs>
     <use xlink:href="#DejaVuSans-35"/>
    </g>
   </g>
   <g id="text_3">
    <!-- 99 -->
    <g transform="translate(220.73113 173.513393) scale(0.1 -0.1)">
     <defs>
      <path id="DejaVuSans-39" d="M 703 97 
L 703 672 
Q 941 559 1184 500 
Q 1428 441 1663 441 
Q 2288 441 2617 861 
Q 2947 1281 2994 2138 
Q 2813 1869 2534 1725 
Q 2256 1581 1919 1581 
Q 1219 1581 811 2004 
Q 403 2428 403 3163 
Q 403 3881 828 4315 
Q 1253 4750 1959 4750 
Q 2769 4750 3195 4129 
Q 3622 3509 3622 2328 
Q 3622 1225 3098 567 
Q 2575 -91 1691 -91 
Q 1453 -91 1209 -44 
Q 966 3 703 97 
z
M 1959 2075 
Q 2384 2075 2632 2365 
Q 2881 2656 2881 3163 
Q 2881 3666 2632 3958 
Q 2384 4250 1959 4250 
Q 1534 4250 1286 3958 
Q 1038 3666 1038 3163 
Q 1038 2656 1286 2365 
Q 1534 2075 1959 2075 
z
" transform="scale(0.015625)"/>
     </defs>
     <use xlink:href="#DejaVuSans-39"/>
     <use xlink:href="#DejaVuSans-39" x="63.623047"/>
    </g>
   </g>
   <g id="text_4">
    <!-- DUB Portal -->
    <g transform="translate(162.544089 325.859032) scale(0.12 -0.12)">
     <defs>
      <path id="DejaVuSans-44" d="M 1259 4147 
L 1259 519 
L 2022 519 
Q 2988 519 3436 956 
Q 3884 1394 3884 2338 
Q 3884 3275 3436 3711 
Q 2988 4147 2022 4147 
L 1259 4147 
z
M 628 4666 
L 1925 4666 
Q 3281 4666 3915 4102 
Q 4550 3538 4550 2338 
Q 4550 1131 3912 565 
Q 3275 0 1925 0 
L 628 0 
L 628 4666 
z
" transform="scale(0.015625)"/>
      <path id="DejaVuSans-55" d="M 556 4666 
L 1191 4666 
L 1191 1831 
Q 1191 1081 1462 751 
Q 1734 422 2344 422 
Q 2950 422 3222 751 
Q 3494 1081 3494 1831 
L 3494 4666 
L 4128 4666 
L 4128 1753 
Q 4128 841 3676 375 
Q 3225 -91 2344 -91 
Q 1459 -91 1007 375 
Q 556 841 556 1753 
L 556 4666 
z
" transform="scale(0.015625)"/>
      <path id="DejaVuSans-42" d="M 1259 2228 
L 1259 519 
L 2272 519 
Q 2781 519 3026 730 
Q 3272 941 3272 1375 
Q 3272 1813 3026 2020 
Q 2781 2228 2272 2228 
L 1259 2228 
z
M 1259 4147 
L 1259 2741 
L 2194 2741 
Q 2656 2741 2882 2914 
Q 3109 3088 3109 3444 
Q 3109 3797 2882 3972 
Q 2656 4147 2194 4147 
L 1259 4147 
z
M 628 4666 
L 2241 4666 
Q 2963 4666 3353 4366 
Q 3744 4066 3744 3513 
Q 3744 3084 3544 2831 
Q 3344 2578 2956 2516 
Q 3422 2416 3680 2098 
Q 3938 1781 3938 1306 
Q 3938 681 3513 340 
Q 3088 0 2303 0 
L 628 0 
L 628 4666 
z
" transform="scale(0.015625)"/>
      <path id="DejaVuSans-20" transform="scale(0.015625)"/>
      <path id="DejaVuSans-50" d="M 1259 4147 
L 1259 2394 
L 2053 2394 
Q 2494 2394 2734 2622 
Q 2975 2850 2975 3272 
Q 2975 3691 2734 3919 
Q 2494 4147 2053 4147 
L 1259 4147 
z
M 628 4666 
L 2053 4666 
Q 2838 4666 3239 4311 
Q 3641 3956 3641 3272 
Q 3641 2581 3239 2228 
Q 2838 1875 2053 1875 
L 1259 1875 
L 1259 0 
L 628 0 
L 628 4666 
z
" transform="scale(0.015625)"/>
      <path id="DejaVuSans-6f" d="M 1959 3097 
Q 1497 3097 1228 2736 
Q 959 2375 959 1747 
Q 959 1119 1226 758 
Q 1494 397 1959 397 
Q 2419 397 2687 759 
Q 2956 1122 2956 1747 
Q 2956 2369 2687 2733 
Q 2419 3097 1959 3097 
z
M 1959 3584 
Q 2709 3584 3137 3096 
Q 3566 2609 3566 1747 
Q 3566 888 3137 398 
Q 2709 -91 1959 -91 
Q 1206 -91 779 398 
Q 353 888 353 1747 
Q 353 2609 779 3096 
Q 1206 3584 1959 3584 
z
" transform="scale(0.015625)"/>
      <path id="DejaVuSans-72" d="M 2631 2963 
Q 2534 3019 2420 3045 
Q 2306 3072 2169 3072 
Q 1681 3072 1420 2755 
Q 1159 2438 1159 1844 
L 1159 0 
L 581 0 
L 581 3500 
L 1159 3500 
L 1159 2956 
Q 1341 3275 1631 3429 
Q 1922 3584 2338 3584 
Q 2397 3584 2469 3576 
Q 2541 3569 2628 3553 
L 2631 2963 
z
" transform="scale(0.015625)"/>
      <path id="DejaVuSans-74" d="M 1172 4494 
L 1172 3500 
L 2356 3500 
L 2356 3053 
L 1172 3053 
L 1172 1153 
Q 1172 725 1289 603 
Q 1406 481 1766 481 
L 2356 481 
L 2356 0 
L 1766 0 
Q 1100 0 847 248 
Q 594 497 594 1153 
L 594 3053 
L 172 3053 
L 172 3500 
L 594 3500 
L 594 4494 
L 1172 4494 
z
" transform="scale(0.015625)"/>
      <path id="DejaVuSans-61" d="M 2194 1759 
Q 1497 1759 1228 1600 
Q 959 1441 959 1056 
Q 959 750 1161 570 
Q 1363 391 1709 391 
Q 2188 391 2477 730 
Q 2766 1069 2766 1631 
L 2766 1759 
L 2194 1759 
z
M 3341 1997 
L 3341 0 
L 2766 0 
L 2766 531 
Q 2569 213 2275 61 
Q 1981 -91 1556 -91 
Q 1019 -91 701 211 
Q 384 513 384 1019 
Q 384 1609 779 1909 
Q 1175 2209 1959 2209 
L 2766 2209 
L 2766 2266 
Q 2766 2663 2505 2880 
Q 2244 3097 1772 3097 
Q 1472 3097 1187 3025 
Q 903 2953 641 2809 
L 641 3341 
Q 956 3463 1253 3523 
Q 1550 3584 1831 3584 
Q 2591 3584 2966 3190 
Q 3341 2797 3341 1997 
z
" transform="scale(0.015625)"/>
      <path id="DejaVuSans-6c" d="M 603 4863 
L 1178 4863 
L 1178 0 
L 603 0 
L 603 4863 
z
" transform="scale(0.015625)"/>
     </defs>
     <use xlink:href="#DejaVuSans-44"/>
     <use xlink:href="#DejaVuSans-55" x="77.001953"/>
     <use xlink:href="#DejaVuSans-42" x="150.195312"/>
     <use xlink:href="#DejaVuSans-20" x="218.798828"/>
     <use xlink:href="#DejaVuSans-50" x="250.585938"/>
     <use xlink:href="#DejaVuSans-6f" x="307.263672"/>
     <use xlink:href="#DejaVuSans-72" x="368.445312"/>
     <use xlink:href="#DejaVuSans-74" x="409.558594"/>
     <use xlink:href="#DejaVuSans-61" x="448.767578"/>
     <use xlink:href="#DejaVuSans-6c" x="510.046875"/>
    </g>
   </g>
   <g id="text_5">
    <!-- FamPlex -->
    <g transform="translate(230.412041 329.165402) scale(0.12 -0.12)">
     <defs>
      <path id="DejaVuSans-46" d="M 628 4666 
L 3309 4666 
L 3309 4134 
L 1259 4134 
L 1259 2759 
L 3109 2759 
L 3109 2228 
L 1259 2228 
L 1259 0 
L 628 0 
L 628 4666 
z
" transform="scale(0.015625)"/>
      <path id="DejaVuSans-6d" d="M 3328 2828 
Q 3544 3216 3844 3400 
Q 4144 3584 4550 3584 
Q 5097 3584 5394 3201 
Q 5691 2819 5691 2113 
L 5691 0 
L 5113 0 
L 5113 2094 
Q 5113 2597 4934 2840 
Q 4756 3084 4391 3084 
Q 3944 3084 3684 2787 
Q 3425 2491 3425 1978 
L 3425 0 
L 2847 0 
L 2847 2094 
Q 2847 2600 2669 2842 
Q 2491 3084 2119 3084 
Q 1678 3084 1418 2786 
Q 1159 2488 1159 1978 
L 1159 0 
L 581 0 
L 581 3500 
L 1159 3500 
L 1159 2956 
Q 1356 3278 1631 3431 
Q 1906 3584 2284 3584 
Q 2666 3584 2933 3390 
Q 3200 3197 3328 2828 
z
" transform="scale(0.015625)"/>
      <path id="DejaVuSans-65" d="M 3597 1894 
L 3597 1613 
L 953 1613 
Q 991 1019 1311 708 
Q 1631 397 2203 397 
Q 2534 397 2845 478 
Q 3156 559 3463 722 
L 3463 178 
Q 3153 47 2828 -22 
Q 2503 -91 2169 -91 
Q 1331 -91 842 396 
Q 353 884 353 1716 
Q 353 2575 817 3079 
Q 1281 3584 2069 3584 
Q 2775 3584 3186 3129 
Q 3597 2675 3597 1894 
z
M 3022 2063 
Q 3016 2534 2758 2815 
Q 2500 3097 2075 3097 
Q 1594 3097 1305 2825 
Q 1016 2553 972 2059 
L 3022 2063 
z
" transform="scale(0.015625)"/>
      <path id="DejaVuSans-78" d="M 3513 3500 
L 2247 1797 
L 3578 0 
L 2900 0 
L 1881 1375 
L 863 0 
L 184 0 
L 1544 1831 
L 300 3500 
L 978 3500 
L 1906 2253 
L 2834 3500 
L 3513 3500 
z
" transform="scale(0.015625)"/>
     </defs>
     <use xlink:href="#DejaVuSans-46"/>
     <use xlink:href="#DejaVuSans-61" x="48.394531"/>
     <use xlink:href="#DejaVuSans-6d" x="109.673828"/>
     <use xlink:href="#DejaVuSans-50" x="207.085938"/>
     <use xlink:href="#DejaVuSans-6c" x="267.388672"/>
     <use xlink:href="#DejaVuSans-65" x="295.171875"/>
     <use xlink:href="#DejaVuSans-78" x="354.945312"/>
    </g>
   </g>
  </g>
 </g>
 <defs>
  <clipPath id="p5baefc0419">
   <rect x="70.433941" y="10.8" width="319.932119" height="319.908036"/>
  </clipPath>
 </defs>
</svg>
