<?xml version="1.0" encoding="utf-8" standalone="no"?>
<!DOCTYPE svg PUBLIC "-//W3C//DTD SVG 1.1//EN"
  "http://www.w3.org/Graphics/SVG/1.1/DTD/svg11.dtd">
<svg xmlns:xlink="http://www.w3.org/1999/xlink" width="460.8pt" height="345.6pt" viewBox="0 0 460.8 345.6" xmlns="http://www.w3.org/2000/svg" version="1.1">
 <metadata>
  <rdf:RDF xmlns:dc="http://purl.org/dc/elements/1.1/" xmlns:cc="http://creativecommons.org/ns#" xmlns:rdf="http://www.w3.org/1999/02/22-rdf-syntax-ns#">
   <cc:Work>
    <dc:type rdf:resource="http://purl.org/dc/dcmitype/StillImage"/>
    <dc:date>2022-04-27T16:27:12.006040</dc:date>
    <dc:format>image/svg+xml</dc:format>
    <dc:creator>
     <cc:Agent>
      <dc:title>Matplotlib v3.5.1, https://matplotlib.org/</dc:title>
     </cc:Agent>
    </dc:creator>
   </cc:Work>
  </rdf:RDF>
 </metadata>
 <defs>
  <style type="text/css">*{stroke-linejoin: round; stroke-linecap: butt}</style>
 </defs>
 <g id="figure_1">
  <g id="patch_1">
   <path d="M 0 345.6 
L 460.8 345.6 
L 460.8 0 
L 0 0 
z
" style="fill: #ffffff"/>
  </g>
  <g id="axes_1">
   <g id="patch_2">
    <path d="M 95.043681 187.458815 
C 94.403094 182.094366 94.08195 176.696579 94.08195 171.294018 
C 94.08195 165.891457 94.403094 160.49367 95.043681 155.129221 
C 94.387028 160.49246 94.057787 165.890731 94.057787 171.294018 
C 94.057787 176.697306 94.387028 182.095577 95.043681 187.458815 
" clip-path="url(#pded937978b)" style="fill: #ff0000; opacity: 0.4"/>
   </g>
   <g id="patch_3">
    <path d="M 95.043681 155.129221 
C 97.08361 138.468009 102.259086 122.342529 110.296229 107.606123 
C 118.333373 92.869718 129.087865 79.786999 141.990592 69.050288 
C 154.893319 58.313577 169.712595 50.115667 185.6642 44.890381 
C 201.615805 39.665096 218.413307 37.506261 235.167803 38.528121 
C 251.922299 39.549981 268.332938 43.734186 283.531289 50.859313 
C 298.72964 57.984441 312.442796 67.922549 323.945074 80.147726 
C 335.447351 92.372902 344.53221 106.665627 350.718891 122.269547 
C 356.905573 137.873466 360.082986 154.50839 360.082986 171.294018 
C 360.082986 188.079647 356.905573 204.714571 350.718891 220.31849 
C 344.53221 235.922409 335.447351 250.215134 323.945074 262.44031 
C 312.442796 274.665487 298.72964 284.603595 283.531289 291.728723 
C 268.332938 298.85385 251.922299 303.038056 235.167803 304.059915 
C 218.413307 305.081775 201.615805 302.922941 185.6642 297.697655 
C 169.712595 292.472369 154.893319 284.274459 141.990592 273.537748 
C 129.087865 262.801038 118.333373 249.718318 110.296229 234.981913 
C 102.259086 220.245507 97.08361 204.120028 95.043681 187.458815 
C 97.085634 204.558686 102.349327 221.117814 110.555667 236.258196 
C 118.762006 251.398578 129.763344 264.847807 142.976363 275.892775 
C 156.189382 286.937742 171.376354 295.379725 187.732029 300.771112 
C 204.087705 306.162499 221.317813 308.406287 238.508772 307.383505 
C 255.699732 306.360723 272.542243 302.089773 288.143277 294.797111 
C 303.744311 287.504449 317.823172 277.321284 329.633369 264.787552 
C 341.443566 252.25382 350.772607 237.595029 357.125846 221.58842 
C 363.479085 205.581811 366.742213 188.515376 366.742213 171.294018 
C 366.742213 154.07266 363.479085 137.006226 357.125846 120.999617 
C 350.772607 104.993008 341.443566 90.334216 329.633369 77.800484 
C 317.823172 65.266752 303.744311 55.083588 288.143277 47.790926 
C 272.542243 40.498263 255.699732 36.227314 238.508772 35.204532 
C 221.317813 34.18175 204.087705 36.425537 187.732029 41.816924 
C 171.376354 47.208311 156.189382 55.650295 142.976363 66.695262 
C 129.763344 77.740229 118.762006 91.189458 110.555667 106.32984 
C 102.349327 121.470222 97.085634 138.02935 95.043681 155.129221 
" clip-path="url(#pded937978b)" style="fill: #008000; opacity: 0.4"/>
   </g>
   <g id="patch_4">
    <path d="M 95.043681 187.458815 
C 97.08361 204.120028 102.259086 220.245507 110.296229 234.981913 
C 118.333373 249.718318 129.087865 262.801038 141.990592 273.537748 
C 154.893319 284.274459 169.712595 292.472369 185.6642 297.697655 
C 201.615805 302.922941 218.413307 305.081775 235.167803 304.059915 
C 251.922299 303.038056 268.332938 298.85385 283.531289 291.728723 
C 298.72964 284.603595 312.442796 274.665487 323.945074 262.44031 
C 335.447351 250.215134 344.53221 235.922409 350.718891 220.31849 
C 356.905573 204.714571 360.082986 188.079647 360.082986 171.294018 
C 360.082986 154.50839 356.905573 137.873466 350.718891 122.269547 
C 344.53221 106.665627 335.447351 92.372902 323.945074 80.147726 
C 312.442796 67.922549 298.72964 57.984441 283.531289 50.859313 
C 268.332938 43.734186 251.922299 39.549981 235.167803 38.528121 
C 218.413307 37.506261 201.615805 39.665096 185.6642 44.890381 
C 169.712595 50.115667 154.893319 58.313577 141.990592 69.050288 
C 129.087865 79.786999 118.333373 92.869718 110.296229 107.606123 
C 102.259086 122.342529 97.08361 138.468009 95.043681 155.129221 
C 94.403094 160.49367 94.08195 165.891457 94.08195 171.294018 
C 94.08195 176.696579 94.403094 182.094366 95.043681 187.458815 
" clip-path="url(#pded937978b)" style="fill: #b25900; opacity: 0.4"/>
   </g>
   <g id="text_1">
    <!-- 0 -->
    <g transform="translate(90.888618 174.053393)scale(0.1 -0.1)">
     <defs>
      <path id="DejaVuSans-30" d="M 2034 4250 
Q 1547 4250 1301 3770 
Q 1056 3291 1056 2328 
Q 1056 1369 1301 889 
Q 1547 409 2034 409 
Q 2525 409 2770 889 
Q 3016 1369 3016 2328 
Q 3016 3291 2770 3770 
Q 2525 4250 2034 4250 
z
M 2034 4750 
Q 2819 4750 3233 4129 
Q 3647 3509 3647 2328 
Q 3647 1150 3233 529 
Q 2819 -91 2034 -91 
Q 1250 -91 836 529 
Q 422 1150 422 2328 
Q 422 3509 836 4129 
Q 1250 4750 2034 4750 
z
" transform="scale(0.015625)"/>
     </defs>
     <use xlink:href="#DejaVuSans-30"/>
    </g>
   </g>
   <g id="text_2">
    <!-- 5 -->
    <g transform="translate(360.23135 174.053393)scale(0.1 -0.1)">
     <defs>
      <path id="DejaVuSans-35" d="M 691 4666 
L 3169 4666 
L 3169 4134 
L 1269 4134 
L 1269 2991 
Q 1406 3038 1543 3061 
Q 1681 3084 1819 3084 
Q 2600 3084 3056 2656 
Q 3513 2228 3513 1497 
Q 3513 744 3044 326 
Q 2575 -91 1722 -91 
Q 1428 -91 1123 -41 
Q 819 9 494 109 
L 494 744 
Q 775 591 1075 516 
Q 1375 441 1709 441 
Q 2250 441 2565 725 
Q 2881 1009 2881 1497 
Q 2881 1984 2565 2268 
Q 2250 2553 1709 2553 
Q 1456 2553 1204 2497 
Q 953 2441 691 2322 
L 691 4666 
z
" transform="scale(0.015625)"/>
     </defs>
     <use xlink:href="#DejaVuSans-35"/>
    </g>
   </g>
   <g id="text_3">
    <!-- 99 -->
    <g transform="translate(220.719968 174.053393)scale(0.1 -0.1)">
     <defs>
      <path id="DejaVuSans-39" d="M 703 97 
L 703 672 
Q 941 559 1184 500 
Q 1428 441 1663 441 
Q 2288 441 2617 861 
Q 2947 1281 2994 2138 
Q 2813 1869 2534 1725 
Q 2256 1581 1919 1581 
Q 1219 1581 811 2004 
Q 403 2428 403 3163 
Q 403 3881 828 4315 
Q 1253 4750 1959 4750 
Q 2769 4750 3195 4129 
Q 3622 3509 3622 2328 
Q 3622 1225 3098 567 
Q 2575 -91 1691 -91 
Q 1453 -91 1209 -44 
Q 966 3 703 97 
z
M 1959 2075 
Q 2384 2075 2632 2365 
Q 2881 2656 2881 3163 
Q 2881 3666 2632 3958 
Q 2384 4250 1959 4250 
Q 1534 4250 1286 3958 
Q 1038 3666 1038 3163 
Q 1038 2656 1286 2365 
Q 1534 2075 1959 2075 
z
" transform="scale(0.015625)"/>
     </defs>
     <use xlink:href="#DejaVuSans-39"/>
     <use xlink:href="#DejaVuSans-39" x="63.623047"/>
    </g>
   </g>
   <g id="text_4">
    <!-- DUB Portal -->
    <g transform="translate(162.532886 326.891879)scale(0.12 -0.12)">
     <defs>
      <path id="DejaVuSans-44" d="M 1259 4147 
L 1259 519 
L 2022 519 
Q 2988 519 3436 956 
Q 3884 1394 3884 2338 
Q 3884 3275 3436 3711 
Q 2988 4147 2022 4147 
L 1259 4147 
z
M 628 4666 
L 1925 4666 
Q 3281 4666 3915 4102 
Q 4550 3538 4550 2338 
Q 4550 1131 3912 565 
Q 3275 0 1925 0 
L 628 0 
L 628 4666 
z
" transform="scale(0.015625)"/>
      <path id="DejaVuSans-55" d="M 556 4666 
L 1191 4666 
L 1191 1831 
Q 1191 1081 1462 751 
Q 1734 422 2344 422 
Q 2950 422 3222 751 
Q 3494 1081 3494 1831 
L 3494 4666 
L 4128 4666 
L 4128 1753 
Q 4128 841 3676 375 
Q 3225 -91 2344 -91 
Q 1459 -91 1007 375 
Q 556 841 556 1753 
L 556 4666 
z
" transform="scale(0.015625)"/>
      <path id="DejaVuSans-42" d="M 1259 2228 
L 1259 519 
L 2272 519 
Q 2781 519 3026 730 
Q 3272 941 3272 1375 
Q 3272 1813 3026 2020 
Q 2781 2228 2272 2228 
L 1259 2228 
z
M 1259 4147 
L 1259 2741 
L 2194 2741 
Q 2656 2741 2882 2914 
Q 3109 3088 3109 3444 
Q 3109 3797 2882 3972 
Q 2656 4147 2194 4147 
L 1259 4147 
z
M 628 4666 
L 2241 4666 
Q 2963 4666 3353 4366 
Q 3744 4066 3744 3513 
Q 3744 3084 3544 2831 
Q 3344 2578 2956 2516 
Q 3422 2416 3680 2098 
Q 3938 1781 3938 1306 
Q 3938 681 3513 340 
Q 3088 0 2303 0 
L 628 0 
L 628 4666 
z
" transform="scale(0.015625)"/>
      <path id="DejaVuSans-20" transform="scale(0.015625)"/>
      <path id="DejaVuSans-50" d="M 1259 4147 
L 1259 2394 
L 2053 2394 
Q 2494 2394 2734 2622 
Q 2975 2850 2975 3272 
Q 2975 3691 2734 3919 
Q 2494 4147 2053 4147 
L 1259 4147 
z
M 628 4666 
L 2053 4666 
Q 2838 4666 3239 4311 
Q 3641 3956 3641 3272 
Q 3641 2581 3239 2228 
Q 2838 1875 2053 1875 
L 1259 1875 
L 1259 0 
L 628 0 
L 628 4666 
z
" transform="scale(0.015625)"/>
      <path id="DejaVuSans-6f" d="M 1959 3097 
Q 1497 3097 1228 2736 
Q 959 2375 959 1747 
Q 959 1119 1226 758 
Q 1494 397 1959 397 
Q 2419 397 2687 759 
Q 2956 1122 2956 1747 
Q 2956 2369 2687 2733 
Q 2419 3097 1959 3097 
z
M 1959 3584 
Q 2709 3584 3137 3096 
Q 3566 2609 3566 1747 
Q 3566 888 3137 398 
Q 2709 -91 1959 -91 
Q 1206 -91 779 398 
Q 353 888 353 1747 
Q 353 2609 779 3096 
Q 1206 3584 1959 3584 
z
" transform="scale(0.015625)"/>
      <path id="DejaVuSans-72" d="M 2631 2963 
Q 2534 3019 2420 3045 
Q 2306 3072 2169 3072 
Q 1681 3072 1420 2755 
Q 1159 2438 1159 1844 
L 1159 0 
L 581 0 
L 581 3500 
L 1159 3500 
L 1159 2956 
Q 1341 3275 1631 3429 
Q 1922 3584 2338 3584 
Q 2397 3584 2469 3576 
Q 2541 3569 2628 3553 
L 2631 2963 
z
" transform="scale(0.015625)"/>
      <path id="DejaVuSans-74" d="M 1172 4494 
L 1172 3500 
L 2356 3500 
L 2356 3053 
L 1172 3053 
L 1172 1153 
Q 1172 725 1289 603 
Q 1406 481 1766 481 
L 2356 481 
L 2356 0 
L 1766 0 
Q 1100 0 847 248 
Q 594 497 594 1153 
L 594 3053 
L 172 3053 
L 172 3500 
L 594 3500 
L 594 4494 
L 1172 4494 
z
" transform="scale(0.015625)"/>
      <path id="DejaVuSans-61" d="M 2194 1759 
Q 1497 1759 1228 1600 
Q 959 1441 959 1056 
Q 959 750 1161 570 
Q 1363 391 1709 391 
Q 2188 391 2477 730 
Q 2766 1069 2766 1631 
L 2766 1759 
L 2194 1759 
z
M 3341 1997 
L 3341 0 
L 2766 0 
L 2766 531 
Q 2569 213 2275 61 
Q 1981 -91 1556 -91 
Q 1019 -91 701 211 
Q 384 513 384 1019 
Q 384 1609 779 1909 
Q 1175 2209 1959 2209 
L 2766 2209 
L 2766 2266 
Q 2766 2663 2505 2880 
Q 2244 3097 1772 3097 
Q 1472 3097 1187 3025 
Q 903 2953 641 2809 
L 641 3341 
Q 956 3463 1253 3523 
Q 1550 3584 1831 3584 
Q 2591 3584 2966 3190 
Q 3341 2797 3341 1997 
z
" transform="scale(0.015625)"/>
      <path id="DejaVuSans-6c" d="M 603 4863 
L 1178 4863 
L 1178 0 
L 603 0 
L 603 4863 
z
" transform="scale(0.015625)"/>
     </defs>
     <use xlink:href="#DejaVuSans-44"/>
     <use xlink:href="#DejaVuSans-55" x="77.001953"/>
     <use xlink:href="#DejaVuSans-42" x="150.195312"/>
     <use xlink:href="#DejaVuSans-20" x="218.798828"/>
     <use xlink:href="#DejaVuSans-50" x="250.585938"/>
     <use xlink:href="#DejaVuSans-6f" x="307.263672"/>
     <use xlink:href="#DejaVuSans-72" x="368.445312"/>
     <use xlink:href="#DejaVuSans-74" x="409.558594"/>
     <use xlink:href="#DejaVuSans-61" x="448.767578"/>
     <use xlink:href="#DejaVuSans-6c" x="510.046875"/>
    </g>
   </g>
   <g id="text_5">
    <!-- FamPlex -->
    <g transform="translate(230.412082 330.209411)scale(0.12 -0.12)">
     <defs>
      <path id="DejaVuSans-46" d="M 628 4666 
L 3309 4666 
L 3309 4134 
L 1259 4134 
L 1259 2759 
L 3109 2759 
L 3109 2228 
L 1259 2228 
L 1259 0 
L 628 0 
L 628 4666 
z
" transform="scale(0.015625)"/>
      <path id="DejaVuSans-6d" d="M 3328 2828 
Q 3544 3216 3844 3400 
Q 4144 3584 4550 3584 
Q 5097 3584 5394 3201 
Q 5691 2819 5691 2113 
L 5691 0 
L 5113 0 
L 5113 2094 
Q 5113 2597 4934 2840 
Q 4756 3084 4391 3084 
Q 3944 3084 3684 2787 
Q 3425 2491 3425 1978 
L 3425 0 
L 2847 0 
L 2847 2094 
Q 2847 2600 2669 2842 
Q 2491 3084 2119 3084 
Q 1678 3084 1418 2786 
Q 1159 2488 1159 1978 
L 1159 0 
L 581 0 
L 581 3500 
L 1159 3500 
L 1159 2956 
Q 1356 3278 1631 3431 
Q 1906 3584 2284 3584 
Q 2666 3584 2933 3390 
Q 3200 3197 3328 2828 
z
" transform="scale(0.015625)"/>
      <path id="DejaVuSans-65" d="M 3597 1894 
L 3597 1613 
L 953 1613 
Q 991 1019 1311 708 
Q 1631 397 2203 397 
Q 2534 397 2845 478 
Q 3156 559 3463 722 
L 3463 178 
Q 3153 47 2828 -22 
Q 2503 -91 2169 -91 
Q 1331 -91 842 396 
Q 353 884 353 1716 
Q 353 2575 817 3079 
Q 1281 3584 2069 3584 
Q 2775 3584 3186 3129 
Q 3597 2675 3597 1894 
z
M 3022 2063 
Q 3016 2534 2758 2815 
Q 2500 3097 2075 3097 
Q 1594 3097 1305 2825 
Q 1016 2553 972 2059 
L 3022 2063 
z
" transform="scale(0.015625)"/>
      <path id="DejaVuSans-78" d="M 3513 3500 
L 2247 1797 
L 3578 0 
L 2900 0 
L 1881 1375 
L 863 0 
L 184 0 
L 1544 1831 
L 300 3500 
L 978 3500 
L 1906 2253 
L 2834 3500 
L 3513 3500 
z
" transform="scale(0.015625)"/>
     </defs>
     <use xlink:href="#DejaVuSans-46"/>
     <use xlink:href="#DejaVuSans-61" x="48.394531"/>
     <use xlink:href="#DejaVuSans-6d" x="109.673828"/>
     <use xlink:href="#DejaVuSans-50" x="207.085938"/>
     <use xlink:href="#DejaVuSans-6c" x="267.388672"/>
     <use xlink:href="#DejaVuSans-65" x="295.171875"/>
     <use xlink:href="#DejaVuSans-78" x="354.945312"/>
    </g>
   </g>
  </g>
 </g>
 <defs>
  <clipPath id="pded937978b">
   <rect x="69.8939" y="10.8" width="321.0122" height="320.988036"/>
  </clipPath>
 </defs>
</svg>
